<svg width="164" height="44" fill="none" xmlns="http://www.w3.org/2000/svg"><g clip-path="url(#a)"><path d="M34.797 43.167H7.98A7.978 7.978 0 0 1 0 35.187V8.37A7.978 7.978 0 0 1 7.979.39h26.818a7.978 7.978 0 0 1 7.979 7.98v26.818a7.978 7.978 0 0 1-7.979 7.979Z" fill="#292F36"/><path d="M29.094 22.172c.763.957 1.15 2.07 1.15 3.33 0 1.852-.617 3.305-1.852 4.334-1.235 1.03-3.002 1.562-5.303 1.562H13.04V9.786h9.808c2.203 0 3.899.484 5.097 1.44 1.199.957 1.804 2.326 1.804 4.093 0 1.308-.35 2.385-1.041 3.257-.69.872-1.598 1.429-2.724 1.695 1.32.315 2.349.945 3.111 1.901Zm-10.836-3.547h3.427c1.816 0 2.724-.775 2.724-2.325 0-1.55-.932-2.325-2.785-2.325h-3.366v4.65Zm6.635 6.15c0-.775-.254-1.38-.763-1.816-.508-.436-1.235-.654-2.167-.654H18.27v4.855H22c1.924-.012 2.893-.799 2.893-2.385Z" fill="#fff"/><path d="m67.56 31.398-4.673-8.16H61.7v8.16h-5.23V9.786h8.923c1.707 0 3.16.29 4.335.884 1.186.593 2.07 1.405 2.663 2.434.593 1.029.884 2.203.884 3.535 0 1.574-.436 2.906-1.296 4.008-.871 1.101-2.118 1.852-3.777 2.264l5.134 8.5H67.56v-.013ZM61.7 19.666h3.233c1.041 0 1.804-.23 2.288-.69.485-.46.739-1.138.739-2.034 0-.86-.254-1.526-.75-2.022-.497-.485-1.26-.739-2.277-.739H61.7v5.485ZM96.933 27.463h-8.1L87.49 31.41h-5.497l7.919-21.454h6.017l7.919 21.454h-5.558l-1.356-3.947ZM95.59 23.48l-2.688-7.943-2.724 7.943h5.412ZM132.699 31.398h-5.231l-8.741-13.27v13.27h-5.231V9.786h5.231l8.741 13.391V9.787h5.231v21.611ZM162.023 26.192c-.908 1.634-2.215 2.918-3.91 3.838-1.708.92-3.705 1.38-6.006 1.38h-8.16V9.798h8.16c2.325 0 4.335.448 6.018 1.344 1.695.896 2.99 2.155 3.898 3.79.908 1.634 1.356 3.499 1.356 5.63 0 2.106-.46 3.983-1.356 5.63Zm-5.63-1.09c1.126-1.078 1.695-2.603 1.695-4.552 0-1.962-.569-3.475-1.695-4.553-1.126-1.077-2.712-1.622-4.758-1.622h-2.47v12.35h2.47c2.046 0 3.632-.533 4.758-1.623Z" fill="#292F36"/></g><defs><clipPath id="a"><path fill="#fff" transform="translate(0 .39)" d="M0 0h164v43H0z"/></clipPath></defs></svg>