<svg width="117" height="49" fill="none" xmlns="http://www.w3.org/2000/svg"><g clip-path="url(#a)" fill="#292F36"><path d="M0 29.596V.391h17.2v29.191H0v.014Zm15.117-6.794.442-3.226-1.598-.157-.486 2.483c-1 .5-2.227.743-3.697.743-1.998 0-3.583-.628-4.74-1.899-1.17-1.27-1.74-2.94-1.74-5.024 0-2.027.57-3.698 1.698-5.01 1.128-1.314 2.612-1.97 4.454-1.97.942 0 1.741.113 2.384.328.642.214 1.227.5 1.784.87l.471 2.456 1.627-.158-.47-3.226c-.686-.585-1.5-1.056-2.442-1.427-.942-.357-2.112-.542-3.497-.542-1.642 0-3.055.4-4.24 1.213a8.287 8.287 0 0 0-2.769 3.212 9.709 9.709 0 0 0-.985 4.325c0 2.44.757 4.482 2.27 6.11 1.513 1.627 3.483 2.44 5.924 2.44 2.398 0 4.268-.514 5.61-1.541ZM23.04 29.596V.391h7.393v29.191H23.04v.014Zm.784-5.51h5.838v-1.47H27.65V6.315h-3.854v1.47h2.04v14.831h-2.012v1.47ZM36.272 29.596V.391h12.99v29.191h-12.99v.014Zm2.355-16.13-.414 2.655 1.499.186.442-1.984c.643-.315 1.37-.472 2.227-.472 1.028 0 1.727.257 2.084.771s.528 1.185.528 2.013v1.028a19.304 19.304 0 0 0-.999-.072c-.357-.014-.7-.028-1.042-.028a9.785 9.785 0 0 0-3.654.685c-1.142.457-1.713 1.413-1.713 2.855 0 1.228.385 2.07 1.17 2.526.786.472 1.556.7 2.313.7.928 0 1.727-.243 2.384-.728.656-.485 1.17-1.028 1.541-1.656v.057c.029 1.556.728 2.327 2.099 2.327.528 0 1.028-.128 1.499-.385l-.029-1.185c-.228.1-.485.157-.77.157-.657 0-.986-.414-.986-1.242v-5.467c0-2.57-1.37-3.854-4.11-3.854-.757 0-1.471.085-2.142.257a6.86 6.86 0 0 0-1.927.856Zm6.352 6.31c-.071.942-.457 1.698-1.156 2.24-.7.557-1.442.828-2.241.828-.5 0-.985-.142-1.442-.414-.47-.27-.7-.785-.7-1.527 0-.9.358-1.47 1.043-1.741.7-.272 1.47-.4 2.34-.4.386 0 .757.014 1.114.057.357.029.714.057 1.028.071v.885h.014ZM55.114 29.596V.391h11.805v29.191H55.114v.014Zm10.563-8.836c0-.913-.243-1.584-.728-2.027-.485-.442-1.07-.742-1.784-.913a29.153 29.153 0 0 0-2.113-.428c-.7-.115-1.299-.3-1.784-.543-.485-.242-.728-.67-.728-1.285 0-.585.228-1.013.7-1.299.47-.285 1.056-.414 1.784-.414.842 0 1.627.186 2.355.571l.285 1.856 1.5-.185-.286-2.684c-.486-.3-1.07-.543-1.77-.742-.7-.2-1.442-.314-2.241-.314a5.92 5.92 0 0 0-2.927.756c-.899.5-1.341 1.356-1.341 2.584 0 .9.242 1.556.728 1.97.485.428 1.084.713 1.812.885.728.171 1.442.314 2.156.442.714.115 1.313.314 1.798.571.486.257.728.7.728 1.342 0 .657-.314 1.142-.942 1.456-.628.314-1.341.471-2.155.471-.914 0-1.77-.185-2.555-.57l.071-1.528-1.442-.157-.357 2.612c.5.328 1.157.6 1.956.814a9.27 9.27 0 0 0 2.413.328c1.384 0 2.54-.314 3.468-.956.928-.614 1.4-1.5 1.4-2.613ZM72.757 29.596V.391h11.805v29.191H72.757v.014ZM83.32 20.76c0-.913-.242-1.584-.728-2.027-.485-.442-1.07-.742-1.784-.913a29.164 29.164 0 0 0-2.113-.428c-.699-.115-1.298-.3-1.784-.543-.485-.242-.728-.67-.728-1.285 0-.585.228-1.013.7-1.299.47-.285 1.056-.414 1.784-.414.842 0 1.627.186 2.355.571l.286 1.856 1.499-.185-.286-2.684c-.485-.3-1.07-.543-1.77-.742-.7-.2-1.442-.314-2.241-.314a5.92 5.92 0 0 0-2.926.756c-.9.5-1.342 1.356-1.342 2.584 0 .9.242 1.556.728 1.97.485.428 1.085.713 1.813.885a41.33 41.33 0 0 0 2.155.442c.714.115 1.313.314 1.799.571.485.257.728.7.728 1.342 0 .657-.314 1.142-.942 1.456-.628.314-1.342.471-2.156.471-.913 0-1.77-.185-2.555-.57l.072-1.528-1.442-.157-.357 2.612c.5.328 1.156.6 1.955.814a9.27 9.27 0 0 0 2.413.328c1.385 0 2.54-.314 3.469-.956.927-.614 1.398-1.5 1.398-2.613ZM90.4 29.596V.391h7.78v29.191H90.4v.014Zm1.143-5.51h5.838v-1.47h-2.013v-10.02H91.5v1.47h2.07v8.55h-2.013v1.47h-.014ZM93.37 7.271v2.355h1.97V7.271h-1.97ZM104.019 29.596V.391h12.433v29.191h-12.433v.014Zm11.319-9.378-1.556-.343c-.342 1.942-1.384 2.912-3.097 2.912-1.142 0-2.013-.385-2.612-1.156-.6-.77-.9-1.856-.9-3.226 0-1.242.271-2.298.8-3.183.528-.885 1.413-1.313 2.64-1.313.943 0 1.77.214 2.456.642l.442 1.941 1.499-.185-.443-2.77c-.585-.442-1.199-.756-1.841-.927a8.124 8.124 0 0 0-2.098-.257c-1.785 0-3.141.628-4.026 1.884-.899 1.256-1.342 2.684-1.342 4.268 0 1.841.471 3.283 1.428 4.297.942 1.027 2.212 1.541 3.797 1.541 1.584 0 2.755-.442 3.497-1.313.743-.885 1.199-1.813 1.356-2.812ZM7.437 45.541a3.41 3.41 0 0 1-1.442 1.399c-.642.328-1.399.5-2.284.5H1.156v-8.051h2.555c.885 0 1.656.157 2.284.485.628.328 1.114.785 1.442 1.399.328.614.485 1.313.485 2.141 0 .814-.157 1.527-.485 2.127Zm-1.413.157c.557-.542.828-1.299.828-2.284 0-.985-.271-1.741-.828-2.284-.557-.542-1.356-.814-2.413-.814H2.17v6.196H3.61c1.057 0 1.856-.272 2.413-.814ZM13.218 40.23v2.756h3.055v.8h-3.055v2.811h3.398v.843h-4.44v-8.051h4.44v.842h-3.398ZM25.637 46.412c-.185.328-.457.6-.828.8-.37.199-.828.313-1.384.313-.529 0-1.014-.1-1.428-.285a2.644 2.644 0 0 1-1-.8 2.375 2.375 0 0 1-.427-1.156h1.113c.029.228.1.457.229.67.128.215.328.4.57.543.243.143.543.215.9.215.456 0 .813-.115 1.056-.372.243-.257.371-.556.371-.942 0-.328-.085-.6-.257-.8a1.905 1.905 0 0 0-.628-.484c-.242-.115-.6-.243-1.028-.386a12.69 12.69 0 0 1-1.227-.47 1.964 1.964 0 0 1-.785-.672c-.214-.3-.329-.685-.329-1.17 0-.414.1-.785.3-1.114.2-.314.485-.57.87-.742.372-.171.829-.257 1.328-.257.786 0 1.428.186 1.885.571.47.385.728.87.813 1.47h-1.113c-.057-.314-.229-.6-.485-.842-.272-.243-.628-.371-1.085-.371-.414 0-.757.114-1 .328-.256.214-.37.528-.37.914 0 .314.085.57.242.756.171.2.371.343.614.457.243.114.585.229.999.371.514.172.928.329 1.256.486.314.157.585.385.8.685.214.3.328.714.328 1.227a2.5 2.5 0 0 1-.3 1.057ZM31.204 39.389v8.05h-1.042v-8.05h1.042ZM41.739 40.002c.642.472 1.07 1.1 1.284 1.899h-1.099a2.402 2.402 0 0 0-.956-1.17c-.443-.3-.97-.443-1.585-.443-.542 0-1.042.129-1.47.385a2.79 2.79 0 0 0-1.028 1.085c-.242.471-.37 1.028-.37 1.67 0 .657.128 1.228.37 1.7.243.47.6.841 1.042 1.098.443.257.957.386 1.542.386.5 0 .942-.115 1.356-.314a2.742 2.742 0 0 0 1.014-.928c.27-.4.414-.885.47-1.428h-3.168v-.77h4.04v.956a4.089 4.089 0 0 1-.6 1.741c-.328.529-.77.928-1.328 1.228-.556.3-1.184.457-1.898.457-.771 0-1.456-.172-2.056-.514a3.495 3.495 0 0 1-1.384-1.456c-.329-.614-.5-1.328-.5-2.127 0-.8.171-1.513.5-2.127.328-.614.799-1.113 1.384-1.456.586-.343 1.27-.528 2.041-.528.971-.029 1.756.2 2.399.657ZM53.715 47.44h-1.042l-4.182-6.367v6.367h-1.042v-8.051h1.042l4.182 6.366V39.39h1.042v8.05ZM68.732 46.412c-.186.328-.457.6-.828.8-.371.199-.828.313-1.385.313a3.49 3.49 0 0 1-1.427-.285 2.643 2.643 0 0 1-1-.8 2.375 2.375 0 0 1-.428-1.156h1.114c.028.228.1.457.228.67.129.215.329.4.571.543.243.143.543.215.9.215.456 0 .813-.115 1.056-.372.242-.257.37-.556.37-.942 0-.328-.085-.6-.256-.8a1.905 1.905 0 0 0-.628-.484c-.243-.115-.6-.243-1.028-.386a12.694 12.694 0 0 1-1.228-.47 1.965 1.965 0 0 1-.785-.672c-.214-.3-.328-.685-.328-1.17 0-.414.1-.785.3-1.114.2-.314.485-.57.87-.742.372-.171.829-.257 1.328-.257.785 0 1.428.186 1.884.571.472.385.728.87.814 1.47h-1.113c-.058-.314-.229-.6-.486-.842-.27-.243-.628-.371-1.085-.371-.413 0-.756.114-.999.328-.257.214-.37.528-.37.914 0 .314.085.57.242.756.171.2.37.343.614.457.242.114.585.229.999.371.514.172.928.329 1.256.486.314.157.585.385.8.685.213.3.328.714.328 1.227a2.501 2.501 0 0 1-.3 1.057ZM78.196 39.389v.842h-2.27v7.209H74.87v-7.21H72.6v-.841h5.596ZM83.05 39.389v4.825c0 .785.17 1.37.528 1.755.356.371.827.571 1.456.571.613 0 1.084-.185 1.427-.57.343-.386.514-.957.514-1.742v-4.825h1.042v4.825c0 1.099-.271 1.927-.814 2.47-.542.556-1.27.827-2.184.827-.9 0-1.627-.271-2.17-.828-.542-.556-.813-1.37-.813-2.47v-4.824h1.013v-.014ZM98.766 45.541a3.41 3.41 0 0 1-1.442 1.399c-.642.328-1.399.5-2.284.5h-2.555v-8.051h2.555c.885 0 1.656.157 2.284.485.628.328 1.113.785 1.442 1.399.328.614.485 1.313.485 2.141 0 .814-.157 1.527-.485 2.127Zm-1.4.157c.557-.542.829-1.299.829-2.284 0-.985-.272-1.741-.828-2.284-.557-.542-1.356-.814-2.413-.814h-1.441v6.196h1.441c1.042 0 1.856-.272 2.413-.814ZM104.561 39.389v8.05h-1.042v-8.05h1.042ZM114.782 39.817a3.79 3.79 0 0 1 1.413 1.47c.342.628.514 1.342.514 2.127 0 .785-.172 1.499-.514 2.127a3.79 3.79 0 0 1-1.413 1.47c-.6.357-1.271.528-2.013.528s-1.428-.17-2.027-.528a3.821 3.821 0 0 1-1.428-1.47c-.342-.628-.513-1.342-.513-2.127 0-.785.171-1.499.513-2.127a3.725 3.725 0 0 1 1.428-1.47 3.943 3.943 0 0 1 2.027-.528c.742 0 1.413.171 2.013.528Zm-3.512.828a2.556 2.556 0 0 0-1.028 1.099c-.242.471-.371 1.028-.371 1.67 0 .628.129 1.185.371 1.67.243.486.585.842 1.028 1.1.443.256.928.385 1.485.385.542 0 1.042-.129 1.484-.386a2.637 2.637 0 0 0 1.028-1.099c.243-.47.371-1.028.371-1.656 0-.642-.128-1.199-.371-1.67a2.637 2.637 0 0 0-1.028-1.099 2.875 2.875 0 0 0-1.484-.385 2.771 2.771 0 0 0-1.485.37Z"/></g><defs><clipPath id="a"><path fill="#fff" transform="translate(0 .39)" d="M0 0h117v48H0z"/></clipPath></defs></svg>