<svg width="18" height="19" fill="none" xmlns="http://www.w3.org/2000/svg"><g clip-path="url(#a)"><path d="M9.343 4.982A4.266 4.266 0 0 0 5.079 9.25a4.243 4.243 0 0 0 4.264 4.268 4.266 4.266 0 0 0 4.263-4.268c0-2.338-1.928-4.268-4.263-4.268Zm0 7.051A2.778 2.778 0 0 1 6.562 9.25c0-1.521 1.223-2.746 2.78-2.746a2.739 2.739 0 0 1 2.744 2.746c0 1.559-1.223 2.783-2.743 2.783Zm5.413-7.199a.997.997 0 0 0-1.002-1.002.997.997 0 0 0-1 1.002.997.997 0 0 0 1 1.002.997.997 0 0 0 1.002-1.002Zm2.817 1.002c-.074-1.336-.37-2.524-1.335-3.488-.963-.965-2.15-1.262-3.484-1.336-1.372-.075-5.488-.075-6.86 0-1.334.074-2.484.37-3.485 1.336-.964.965-1.26 2.152-1.334 3.488C1 7.209 1 11.328 1.075 12.7c.074 1.336.37 2.486 1.334 3.488 1.001.965 2.15 1.262 3.486 1.336 1.371.075 5.487.075 6.859 0 1.334-.074 2.52-.37 3.484-1.335.965-1.003 1.261-2.153 1.335-3.489.075-1.373.075-5.492 0-6.865Zm-1.78 8.313c-.259.742-.852 1.298-1.556 1.595-1.113.445-3.708.334-4.894.334-1.224 0-3.82.111-4.894-.334a2.813 2.813 0 0 1-1.595-1.595c-.445-1.077-.333-3.674-.333-4.899 0-1.188-.112-3.785.333-4.898A2.861 2.861 0 0 1 4.45 2.793c1.075-.445 3.67-.334 4.894-.334 1.186 0 3.781-.111 4.893.334.705.26 1.261.853 1.558 1.559.444 1.113.333 3.71.333 4.898 0 1.225.111 3.822-.333 4.899Z" fill="#CDA274"/></g><defs><clipPath id="a"><path fill="#fff" transform="translate(.85 .203)" d="M0 0h16.985v18H0z"/></clipPath></defs></svg>