<svg width="17" height="18" fill="none" xmlns="http://www.w3.org/2000/svg"><g clip-path="url(#a)"><path d="M4.539 16.375V5.863H1.272v10.512H4.54ZM2.888 4.457c1.054 0 1.897-.879 1.897-1.934 0-1.02-.843-1.863-1.897-1.863a1.875 1.875 0 0 0-1.862 1.863c0 1.055.843 1.934 1.862 1.934Zm13.839 11.918h.035v-5.766c0-2.812-.632-4.992-3.934-4.992-1.58 0-2.634.88-3.09 1.688h-.036V5.863H6.576v10.512h3.266v-5.203c0-1.371.246-2.672 1.932-2.672s1.721 1.547 1.721 2.777v5.098h3.232Z" fill="#292F36"/></g><defs><clipPath id="a"><path fill="#fff" transform="translate(.901 .203)" d="M0 0h15.985v17H0z"/></clipPath></defs></svg>