<svg width="198" height="34" fill="none" xmlns="http://www.w3.org/2000/svg"><path d="M0 34h12.87V24.5c0-2.014 1.559-3.645 3.485-3.645 1.925 0 3.485 1.631 3.485 3.645V34h12.669V0C14.555 0 0 15.221 0 34Z" fill="#CDA274"/><path d="M43.906 31v-.4l.8-.32c.534-.187.88-.44 1.04-.76.187-.32.28-.747.28-1.28V7.36c0-.533-.08-.96-.24-1.28-.16-.32-.52-.573-1.08-.76l-.8-.32v-.4h10.28V5l-.8.32c-.533.187-.893.44-1.08.76-.16.32-.24.747-.24 1.28v20.88c0 .533.08.96.24 1.28.187.293.547.547 1.08.76l.8.32v.4h-10.28ZM56.258 31v-.4l.56-.16c.933-.267 1.4-.92 1.4-1.96V15.96c0-.587-.094-1.013-.28-1.28-.187-.293-.547-.493-1.08-.6l-.6-.16v-.4l6.84-2.32.4.4.32 2.4a12.591 12.591 0 0 1 3.16-2.04c1.173-.533 2.333-.8 3.48-.8 1.76 0 3.106.48 4.04 1.44.96.96 1.44 2.427 1.44 4.4v11.52c0 1.04.506 1.693 1.52 1.96l.36.12v.4h-9.44v-.4l.52-.16c.933-.293 1.4-.947 1.4-1.96V15.72c0-1.707-.854-2.56-2.56-2.56-1.174 0-2.454.587-3.84 1.76v13.6c0 1.04.466 1.693 1.4 1.96l.36.12v.4h-9.4ZM87.187 31.6c-1.706 0-3.04-.427-4-1.28-.933-.853-1.4-2.213-1.4-4.08V12.56h-2.76v-.4l.96-.16c.827-.187 1.534-.453 2.12-.8a8.443 8.443 0 0 0 1.8-1.4l3.28-3.64h.4l-.12 5.6h4.48v.8h-4.52v14.4c0 .933.2 1.64.6 2.12.427.48.96.72 1.6.72.56 0 1.054-.133 1.48-.4.427-.293.854-.68 1.28-1.16l.4.4a5.898 5.898 0 0 1-2.2 2.16c-.933.533-2.066.8-3.4.8ZM104.363 11.16c1.734 0 3.214.36 4.44 1.08a6.933 6.933 0 0 1 2.8 2.88c.667 1.2 1 2.573 1 4.12 0 .293-.013.6-.04.92-.026.293-.08.56-.16.8h-11.92c.027 2.88.534 4.96 1.52 6.24 1.014 1.253 2.507 1.88 4.48 1.88 1.334 0 2.414-.213 3.24-.64.827-.427 1.6-1.053 2.32-1.88l.4.36c-.826 1.467-1.933 2.613-3.32 3.44-1.36.827-3 1.24-4.92 1.24-1.893 0-3.573-.4-5.04-1.2-1.466-.827-2.613-2-3.44-3.52-.826-1.52-1.24-3.333-1.24-5.44 0-2.187.48-4.04 1.44-5.56.96-1.547 2.187-2.72 3.68-3.52 1.52-.8 3.107-1.2 4.76-1.2Zm-.12.8c-.773 0-1.44.24-2 .72-.533.453-.96 1.28-1.28 2.48-.293 1.173-.453 2.84-.48 5h6.84c.267-2.907.16-5-.32-6.28-.48-1.28-1.4-1.92-2.76-1.92ZM114.997 31v-.4l.6-.16c.533-.16.893-.4 1.08-.72.213-.32.32-.733.32-1.24V15.96c0-.587-.107-1.013-.32-1.28-.187-.293-.547-.493-1.08-.6l-.6-.16v-.4l6.88-2.32.4.4.36 3.44v.32a8.303 8.303 0 0 1 1.44-2.04 8.453 8.453 0 0 1 2-1.56c.746-.4 1.48-.6 2.2-.6 1.013 0 1.786.28 2.32.84.533.56.8 1.267.8 2.12 0 .907-.267 1.613-.8 2.12-.507.48-1.12.72-1.84.72-1.12 0-2.107-.56-2.96-1.68l-.08-.08c-.267-.373-.574-.573-.92-.6-.347-.053-.667.107-.96.48a3.21 3.21 0 0 0-.68.88c-.16.32-.32.693-.48 1.12v11.16c0 1.067.466 1.733 1.4 2l1.28.36v.4h-10.36ZM133.053 31v-.4l.56-.16c.933-.267 1.4-.92 1.4-1.96V15.96c0-.587-.093-1.013-.28-1.28-.187-.293-.547-.493-1.08-.6l-.6-.16v-.4l6.84-2.32.4.4.32 2.4a12.59 12.59 0 0 1 3.16-2.04c1.173-.533 2.333-.8 3.48-.8 1.76 0 3.107.48 4.04 1.44.96.96 1.44 2.427 1.44 4.4v11.52c0 1.04.507 1.693 1.52 1.96l.36.12v.4h-9.44v-.4l.52-.16c.933-.293 1.4-.947 1.4-1.96V15.72c0-1.707-.853-2.56-2.56-2.56-1.173 0-2.453.587-3.84 1.76v13.6c0 1.04.467 1.693 1.4 1.96l.36.12v.4h-9.4ZM166.698 31.6c-2.027 0-3.787-.413-5.28-1.24-1.493-.853-2.653-2.053-3.48-3.6-.8-1.547-1.2-3.36-1.2-5.44 0-2.08.427-3.88 1.28-5.4.88-1.52 2.067-2.693 3.56-3.52 1.52-.827 3.227-1.24 5.12-1.24 1.893 0 3.587.413 5.08 1.24 1.493.8 2.667 1.96 3.52 3.48.88 1.52 1.32 3.333 1.32 5.44s-.413 3.933-1.24 5.48a8.675 8.675 0 0 1-3.44 3.56c-1.467.827-3.213 1.24-5.24 1.24Zm0-.8c.933 0 1.68-.267 2.24-.8.56-.533.96-1.48 1.2-2.84.267-1.36.4-3.28.4-5.76 0-2.507-.133-4.44-.4-5.8-.24-1.36-.64-2.307-1.2-2.84-.56-.533-1.307-.8-2.24-.8-.933 0-1.693.267-2.28.8-.56.533-.973 1.48-1.24 2.84-.24 1.36-.36 3.293-.36 5.8 0 2.48.12 4.4.36 5.76.267 1.36.68 2.307 1.24 2.84.587.533 1.347.8 2.28.8ZM187.455 31.72c-1.467 0-2.96-.187-4.48-.56-1.52-.347-2.787-.813-3.8-1.4l.2-5.44h.4l1.24 2.6c.373.747.773 1.413 1.2 2 .426.56 1.013 1 1.76 1.32.533.267 1.04.453 1.52.56.506.08 1.066.12 1.68.12 1.626 0 2.906-.44 3.84-1.32.96-.88 1.44-2.013 1.44-3.4 0-1.307-.32-2.32-.96-3.04-.64-.747-1.667-1.467-3.08-2.16l-1.64-.72c-2.294-1.013-4.093-2.173-5.4-3.48-1.28-1.333-1.92-3.093-1.92-5.28 0-1.573.4-2.933 1.2-4.08.826-1.147 1.96-2.027 3.4-2.64 1.466-.613 3.173-.92 5.12-.92 1.413 0 2.747.187 4 .56 1.28.373 2.386.88 3.32 1.52l-.24 4.8h-.4l-1.64-3c-.454-.933-.907-1.587-1.36-1.96-.454-.4-.973-.68-1.56-.84a4.762 4.762 0 0 0-.96-.2 6.456 6.456 0 0 0-1.12-.08c-1.36 0-2.507.4-3.44 1.2-.934.773-1.4 1.827-1.4 3.16 0 1.36.36 2.453 1.08 3.28.72.8 1.773 1.52 3.16 2.16l1.84.8c2.56 1.12 4.4 2.32 5.52 3.6 1.12 1.253 1.68 2.88 1.68 4.88 0 2.347-.894 4.267-2.68 5.76-1.76 1.467-4.267 2.2-7.52 2.2Z" fill="#000"/></svg>