<svg width="145" height="46" fill="none" xmlns="http://www.w3.org/2000/svg"><g clip-path="url(#a)" fill="#292F36"><path d="m20.241 9.22 1.07-.229c.272 0 .5.057.657.171.157.115.243.229.243.329s-.028.257-.071.442c-.043.186-.443 2.099-1.185 5.71a777.38 777.38 0 0 0-1.627 8.08c1.655-2.256 3.597-5.025 5.81-8.323 2.212-3.297 3.511-5.481 3.882-6.566.114-.343.271-.6.457-.785.186-.186.357-.3.5-.328a3.52 3.52 0 0 1 .67-.057c.3 0 .657.07 1.071.2.414.128.628.342.628.656 0 .571-.856 2.241-2.555 4.982-1.699 2.74-3.654 5.653-5.853 8.736-2.198 3.083-4.025 5.524-5.495 7.323-.257.314-.586.485-.957.485a4.04 4.04 0 0 1-1.184-.2c-.415-.128-.629-.357-.629-.7 0-1.07.943-6.237 2.827-15.473-1.613 2.084-3.569 4.996-5.867 8.722-2.398 3.854-3.754 6.252-4.068 7.166-.172.556-.371.885-.6.97-.157.072-.328.1-.5.1l-1.156.129c-.228 0-.428-.057-.628-.186-.185-.128-.285-.257-.285-.4 0-.385.542-1.555 1.613-3.497 1.07-1.941 2.34-4.054 3.782-6.338a120.732 120.732 0 0 1 4.511-6.651c1.57-2.156 2.784-3.612 3.64-4.34a.853.853 0 0 1 .6-.228l.7.1ZM37.4 18.898c.742 0 1.113.257 1.113.756 0 .272-.057.471-.186.6-.128.128-.4.542-.813 1.27-.414.714-.871 1.628-1.37 2.755-.5 1.114-.829 2.07-.971 2.855-.029.1-.043.229-.043.414 0 .543.142.8.442.8.3 0 .642-.143 1.042-.414.4-.286.757-.571 1.07-.9.315-.314.615-.642.914-.97.3-.329.471-.528.529-.571a.423.423 0 0 1 .256-.072c.186 0 .3.143.343.429.043.285.057.57.057.885 0 .314-.028.514-.086.628-.285.556-.899 1.227-1.87 2.012-.956.785-1.84 1.17-2.626 1.17-.785 0-1.37-.242-1.727-.713-.357-.47-.557-1.013-.557-1.584 0-.585.1-1.085.3-1.528a13.029 13.029 0 0 1-2.784 2.684c-1.056.728-1.898 1.1-2.57 1.1-.67 0-1.198-.2-1.626-.6-.543-.5-.8-1.185-.8-2.07 0-.885.2-1.77.6-2.67a9.72 9.72 0 0 1 1.556-2.44 14.924 14.924 0 0 1 2.127-2.013c1.613-1.27 3.111-1.899 4.482-1.899.528 0 .956.086 1.285.257.328.172.542.4.628.657.228-.357.428-.571.6-.671.128-.114.37-.157.684-.157Zm-1.942 1.627c-1.67 0-3.397.928-5.182 2.784a13.221 13.221 0 0 0-1.755 2.384c-.543.927-.8 1.555-.8 1.898 0 .343.1.514.3.514.271 0 1.028-.542 2.284-1.613 1.256-1.07 2.084-1.87 2.484-2.384.456-.57 1.341-1.77 2.669-3.583Z"/><path d="m48.505 11.16.6.144c.085 0 .17.042.228.128.071.086.1.171.1.243 0 .071-.1.285-.314.628-.214.342-.443.728-.728 1.156-.286.428-.428.671-.443.714a24.826 24.826 0 0 1 1.613-.086c.314 0 .528.029.657.072.114.042.257.17.4.37.157.2.285.357.414.457.128.1.185.257.185.457s-.128.386-.371.514a1.952 1.952 0 0 1-.8.257c-2.269.228-3.51.343-3.74.357-.784 1.213-1.898 3.098-3.311 5.653-1.413 2.555-2.17 4.168-2.255 4.81-.043.3-.058.528-.058.714 0 .385.2.57.6.57.4 0 .842-.156 1.328-.456a10.94 10.94 0 0 0 1.341-1c1.1-.97 1.685-1.47 1.756-1.47.257 0 .386.443.386 1.314 0 .47-.215.9-.657 1.285-.985.842-1.813 1.484-2.484 1.912-.67.429-1.342.643-2.027.643-.143 0-.285-.015-.414-.043-.785-.143-1.356-.428-1.713-.857-.37-.428-.542-.999-.542-1.713 0-.713.214-1.598.642-2.626a32.573 32.573 0 0 1 1.599-3.283 114.537 114.537 0 0 1 3.155-5.325l-.557.072c-1.128.128-1.784.185-1.97.185h-.128c-.286 0-.557-.057-.814-.171-.257-.114-.4-.257-.4-.414 0-.171.072-.328.214-.485.143-.157.229-.286.257-.371.072-.215.329-.457.771-.714.443-.257.77-.4 1-.414l.656-.043c.214-.014.443-.014.7-.028.256-.015.456-.015.599-.029l1.313-.057c.814-1.228 1.385-2.027 1.685-2.37.314-.356.485-.542.528-.57.043-.03.142-.058.3-.058l.699-.071Z"/><path d="M57.284 25.421c.185 0 .3.143.342.429.043.285.057.57.057.885 0 .314-.028.514-.085.628-.286.542-.9 1.213-1.856 1.998-.956.785-1.87 1.185-2.726 1.185a2.536 2.536 0 0 1-1.47-.471c-.443-.314-.672-.87-.672-1.656 0-.785.215-1.57.628-2.327-2.426 3.04-4.31 4.554-5.695 4.554a1.7 1.7 0 0 1-1.328-.585c-.342-.386-.5-.785-.5-1.214 0-.414.058-.842.172-1.285.114-.442.243-.842.371-1.199.129-.356.328-.785.585-1.299.257-.513.457-.885.571-1.127.115-.243.329-.585.614-1.056.286-.472.643-1.114 1.1-1.913.456-.8.827-1.4 1.127-1.785.3-.385.585-.585.87-.585.286 0 .529.114.743.343.214.228.328.428.328.57 0 .143-.328.8-.985 1.97-1.927 3.498-2.897 5.525-2.897 6.11 0 .143.057.214.157.214.47 0 1.641-1.013 3.497-3.04 1.856-2.027 2.94-3.326 3.24-3.897.3-.571.571-1.057.857-1.442.271-.385.485-.628.628-.714.414-.27.956-.414 1.627-.442.114 0 .186 0 .243.014.057.014.128.1.2.243a.903.903 0 0 1 .114.37c-.086.272-.471 1-1.17 2.185-.686 1.185-1.071 1.856-1.143 1.998-1.156 2.384-1.727 3.94-1.727 4.654 0 .414.157.614.471.614.571-.072 1.256-.528 2.056-1.357.3-.3.585-.613.87-.927.286-.314.472-.5.529-.543a.344.344 0 0 1 .257-.1Z"/><path d="M61.523 22.038c2.298-2.612 4.268-3.925 5.881-3.925.4 0 .728.114.985.356.257.243.386.543.386.928 0 .386-.272 1.014-.814 1.913a30.907 30.907 0 0 1-1.499 2.256c-.242.314-.514.47-.828.47a.848.848 0 0 1-.713-.342 1.264 1.264 0 0 1-.257-.785c0-.671.356-1.442 1.085-2.284l-.029-.029c-.328.029-1.114.671-2.398 1.899a95.035 95.035 0 0 0-3.255 3.326 51.599 51.599 0 0 0-2.912 3.583c-.3.414-.556.628-.77.628-.215 0-.486-.072-.828-.2-.343-.129-.557-.228-.629-.285-.071-.058-.114-.157-.114-.3 0-.129.043-.3.114-.471.072-.186.229-.443.429-.771.2-.328.528-.87.956-1.613.428-.742 1.085-1.87 1.984-3.369.9-1.499 1.428-2.412 1.613-2.726.371-.643.671-1.114.914-1.4.442-.556 1.185-.827 2.227-.827.228 0 .356.142.356.442 0 .457-.428 1.328-1.27 2.584l-.614.942ZM77.268 19.07c0 .642-.257 1.212-.785 1.698-.528.485-1.113.728-1.784.728-.214 0-.357-.057-.428-.157-.072-.1-.1-.243-.1-.4 0-.157.014-.328.057-.485-.357.114-.743.3-1.17.542-.43.243-.957.6-1.585 1.085s-.942.828-.942 1.07c0 .072.114.115.342.115.228 0 .585-.086 1.056-.243.471-.157.814-.242 1-.242.185 0 .314.014.37.028.13.071.258.214.415.443.142.228.214.414.214.542 0 .128-.129.3-.385.514a2.83 2.83 0 0 1-.857.485c-.328.114-.542.2-.642.257-2.056 1.156-3.084 1.941-3.084 2.37 0 .756.643 1.142 1.942 1.142.828 0 1.67-.257 2.498-.785.713-.443 1.356-.9 1.927-1.37.57-.458.928-.743 1.085-.857.157-.114.27-.157.342-.157.257 0 .386.285.386.856s-.029.942-.1 1.114c-.072.185-.257.4-.586.67-2.084 1.7-4.068 2.556-5.923 2.556-1 0-1.785-.143-2.384-.414-1.1-.5-1.642-1.256-1.642-2.284 0-1.342.928-2.37 2.798-3.055-.371-.171-.614-.371-.714-.642-.114-.257-.157-.671-.157-1.242s.271-1.17.8-1.813a6.208 6.208 0 0 1 1.955-1.57c1.713-.928 3.255-1.385 4.597-1.385.328 0 .642.072.984.229.343.157.5.37.5.656ZM110.585 9.134h.185c.058 0 .1 0 .115.014.014.015.028.015.057.029.028 0 .043.014.071.043a.804.804 0 0 0 .2.128c.114.086.171.186.171.3 0 .114-.114.357-.342.728-.229.371-.814 1.27-1.77 2.726a315.103 315.103 0 0 0-5.867 9.307c-2.984 4.968-4.497 7.466-4.525 7.495a.299.299 0 0 0-.057.085c-.015.057-.043.086-.115.086l-.2-.043-.4.1-.228-.043-.242.043h-.086l-.813.114c-.486 0-.728-.171-.728-.5 0-.142.042-.313.128-.513.3-.714 1.827-3.298 4.568-7.78a225.06 225.06 0 0 1-5.339.071l-3.14-.014c-.514.828-1.228 1.998-2.127 3.526-1.941 3.326-2.97 4.996-3.098 5.024-.128.03-.228.058-.314.058-.085 0-.157-.043-.214-.143-.071-.086-.114-.143-.143-.143a.412.412 0 0 0-.157.057c-.071.043-.185.057-.342.057l-.343-.014-.128-.086c-.014 0-.029.015-.043.043-.014.029-.057.043-.114.043-.414 0-.628-.171-.628-.528 0-.229.085-.543.242-.928.172-.385.386-.8.657-1.242.271-.442.956-1.513 2.084-3.183 1.113-1.67 1.67-2.512 1.67-2.527-.185-.014-.4-.014-.642-.028-.5 0-.842-.014-1.056-.057-.557-.1-.943-.557-1.142-1.37-.115-.4-.157-.657-.143-.786 0-.257.114-.4.342-.4l.386.1c.2.015.656.03 1.399.072.742.043 1.27.057 1.598.057l.828-.029a185.19 185.19 0 0 1 4.554-6.751c-1.285 1.056-2.712 1.584-4.282 1.584-.743 0-1.385-.171-1.913-.528-.543-.357-.8-.814-.8-1.356 0-.543.2-.97.614-1.3.414-.313.8-.47 1.17-.47.372 0 .557.057.557.171 0 .043-.057.086-.157.129-.1.057-.157.1-.157.142 0 .157.172.3.514.414.343.114.728.186 1.156.186.429 0 .943-.129 1.57-.371.629-.243 1.271-.571 1.942-.957.942-.542 1.684-.999 2.227-1.356.314-.157.6-.228.885-.228.285 0 .471.028.6.1a.884.884 0 0 1 .27.185c.058.057.13.143.186.243.072.1.129.186.2.228.057.058.1.115.1.186s-.043.171-.114.328c-.072.143-.443.742-1.114 1.785-.67 1.042-1.541 2.37-2.598 3.982a277.022 277.022 0 0 0-2.312 3.569c2.612 0 5.424-.043 8.45-.143 3.683-5.81 5.625-8.85 5.824-9.136.2-.285.386-.47.557-.556.171-.086.371-.129.614-.129l1.242.1ZM115.353 18.87c.299 0 .599.128.899.399.314.271.457.67.457 1.213s-.186 1.242-.571 2.113c-.386.856-.9 1.741-1.571 2.64a22.594 22.594 0 0 1-2.184 2.513 11.611 11.611 0 0 1-2.569 1.927c-.928.5-1.756.757-2.512.757-.757 0-1.356-.243-1.813-.714-.457-.471-.685-1.128-.685-1.97 0-.842.214-1.784.628-2.798a9.994 9.994 0 0 1 1.599-2.712 15.654 15.654 0 0 1 2.126-2.113c1.585-1.284 2.984-1.912 4.183-1.912.542 0 .942.128 1.213.4.1.085.143.17.143.228v.085c.157-.057.371-.057.657-.057Zm-1.471 1.94h-.1c-.342 0-.514-.242-.514-.742-.713.229-1.455.643-2.241 1.228a10.751 10.751 0 0 0-2.098 2.084c-1.256 1.599-1.884 2.955-1.898 4.054 0 .542.199.814.599.814.4 0 .999-.272 1.784-.786.785-.513 1.571-1.27 2.356-2.255.771-.97 1.356-1.827 1.741-2.54.386-.715.585-1.2.585-1.471-.014-.257-.085-.386-.214-.386ZM116.395 30.103l-.714-.028h-.257a.986.986 0 0 1-.314-.172c-.114-.085-.2-.157-.257-.185-.057-.029-.086-.114-.086-.214 0-.1.043-.286.115-.529 1.898-4.182 3.739-7.537 5.524-10.035.2-.27.514-.485.942-.628a4.02 4.02 0 0 1 1.27-.214c.243 0 .371.186.371.571 0 .114-.042.257-.114.428-.071.186-.271.471-.585.886-.314.413-.685.884-1.113 1.398-.429.514-.671.828-.728.914 1.341-1.385 2.54-2.412 3.625-3.098 1.085-.67 1.856-1.013 2.341-1.013.486 0 .857.143 1.114.414.257.271.385.57.385.885 0 .314-.028.585-.071.785a2.659 2.659 0 0 1-.243.657c-.114.228-.214.428-.3.585a6.298 6.298 0 0 1-.414.628c-.199.257-.328.442-.399.542-.072.1-.229.286-.457.557a7.332 7.332 0 0 0-.371.457c.271-.271.656-.671 1.142-1.213a50.66 50.66 0 0 1 1.242-1.342c.342-.357.756-.771 1.27-1.228.514-.457.985-.828 1.413-1.099 1.057-.657 2.127-1 3.212-1 .371 0 .685.115.942.358.257.242.386.513.386.842 0 .328-.4 1.113-1.185 2.34-.785 1.228-1.585 2.47-2.37 3.712-.785 1.242-1.185 2.027-1.185 2.355 0 .443.086.714.243.8.171.085.371.114.6.1.228-.014.571-.171.985-.457a8.139 8.139 0 0 0 1.127-.885c.543-.485 1.028-.956 1.499-1.413.1-.086.2-.129.328-.129.186 0 .3.143.343.429.043.285.057.57.057.885 0 .314-.028.514-.086.628-.285.542-.913 1.213-1.87 2.012-.97.785-1.898 1.185-2.783 1.185-.114 0-.186 0-.228-.014-1-.1-1.699-.371-2.085-.828-.385-.457-.571-1-.571-1.613 0-.614.215-1.385.643-2.27.428-.885.885-1.698 1.399-2.412s.97-1.37 1.399-1.956c.428-.585.642-.899.642-.942 0-.043-.043-.071-.114-.071-.3 0-.971.485-2.027 1.47-1.785 1.67-3.326 3.283-4.625 4.825-.343.414-1.156 1.442-2.427 3.112-.143.2-.385.3-.699.3-.314 0-.643-.058-.985-.186-.343-.129-.514-.286-.514-.471 0-.1.771-1.47 2.327-4.111s2.326-4.083 2.326-4.311c0-.243-.142-.357-.428-.357-.285 0-.885.428-1.784 1.285-2.47 2.355-4.382 4.71-5.738 7.037-.086.143-.257.357-.514.642-.257.286-.486.4-.571.4Z"/><path d="M144.701 19.07c0 .642-.257 1.212-.785 1.698-.528.485-1.114.728-1.784.728-.215 0-.357-.057-.429-.157-.071-.1-.1-.243-.1-.4 0-.157.015-.328.057-.485-.356.114-.742.3-1.17.542-.428.243-.956.6-1.584 1.085-.629.485-.943.828-.943 1.07 0 .072.115.115.343.115.228 0 .585-.086 1.056-.243.471-.157.814-.242 1-.242.185 0 .314.014.371.028.128.071.257.214.414.443.142.228.214.414.214.542 0 .128-.129.3-.386.514a2.828 2.828 0 0 1-.856.485c-.328.114-.543.2-.643.257-2.055 1.156-3.083 1.941-3.083 2.37 0 .756.643 1.142 1.942 1.142.827 0 1.67-.257 2.498-.785.713-.443 1.356-.9 1.927-1.37.571-.458.927-.743 1.085-.857.157-.114.271-.157.342-.157.257 0 .386.285.386.856s-.029.942-.1 1.114c-.072.185-.257.4-.586.67-2.084 1.7-4.068 2.556-5.924 2.556-.999 0-1.784-.143-2.383-.414-1.1-.5-1.642-1.256-1.642-2.284 0-1.342.928-2.37 2.798-3.055-.371-.171-.614-.371-.714-.642-.114-.257-.157-.671-.157-1.242s.271-1.17.799-1.813a6.219 6.219 0 0 1 1.956-1.57c1.713-.928 3.255-1.385 4.596-1.385.329 0 .643.072.985.229.343.157.5.37.5.656ZM0 34.057c3.754 1.57 7.58 2.784 11.477 3.712a86.912 86.912 0 0 0 11.748 2.084c1.97.27 3.954.3 5.91.485 1.983.014 3.953.171 5.923.057l2.955-.071c.985-.014 1.97-.143 2.955-.2.985-.086 1.97-.129 2.94-.257l2.927-.414c3.925-.428 7.736-1.342 11.534-2.441 3.84-1.056 7.465-2.455 11.305-3.911 3.925-1.442 8.18-2.384 12.49-1.927 2.127.27 4.268.956 6.01 2.212 1.756 1.242 3.012 3.012 3.811 4.868-1.199-1.656-2.698-3.012-4.425-3.854-1.727-.842-3.626-1.185-5.51-1.128-3.811.057-7.566 1.328-11.091 2.926a94.587 94.587 0 0 1-11.377 4.697c-3.94 1.27-8.008 2.284-12.133 2.797-8.208 1.085-16.616 1.1-24.724-.542-4.068-.742-8.037-1.898-11.876-3.369C7.037 38.254 3.312 36.47 0 34.057ZM136.507 10.29c-3.183-1.356-6.423-2.412-9.706-3.24-3.269-.87-6.581-1.485-9.907-1.913-1.656-.257-3.34-.314-4.996-.514-1.67-.043-3.326-.214-4.996-.143-.828.015-1.67.015-2.498 0-.828 0-1.67.086-2.498.115-.828.057-1.67.071-2.498.157l-2.484.3c-3.326.27-6.552.956-9.778 1.798-3.269.785-6.366 1.899-9.664 3.012-3.383 1.128-7.051 1.813-10.734 1.299-1.813-.3-3.64-.942-5.082-2.084-1.47-1.128-2.47-2.67-3.083-4.282 1.013 1.413 2.27 2.569 3.711 3.283 1.442.713 3.026 1.013 4.61.999 3.198 0 6.367-1.028 9.365-2.313 3.055-1.456 6.41-2.74 9.75-3.797 3.368-1.013 6.88-1.784 10.391-2.155C103.42.07 110.585.24 117.451 1.868c3.44.728 6.795 1.842 10.006 3.212 3.226 1.399 6.338 3.026 9.05 5.21Z"/></g><defs><clipPath id="a"><path fill="#fff" transform="translate(0 .39)" d="M0 0h145v45H0z"/></clipPath></defs></svg>