<svg aria-hidden="true" style="position:absolute;width:0;height:0;overflow:hidden" xmlns="http://www.w3.org/2000/svg"><defs><symbol id="icon-vs" viewBox="0 0 32 32"><path fill="#fff" d="M15.741 31.384c8.573 0 15.522-6.95 15.522-15.522S24.314.34 15.741.34C7.169.34.219 7.289.219 15.862s6.949 15.522 15.522 15.522z"/><path fill="#292f36" d="M15.742 31.603C7.063 31.603 0 24.54 0 15.861S7.063.119 15.742.119c8.679 0 15.742 7.063 15.742 15.742s-7.063 15.742-15.742 15.742zm0-31.044C7.305.559.44 7.424.44 15.861s6.865 15.302 15.302 15.302 15.302-6.865 15.302-15.302S24.179.559 15.742.559z"/><path fill="#292f36"  d="M17.955 1.917c.105.009.198.013.272.013l-.009.07c-.123.018-.228.11-.312.285l-1.045 2.091-.031-.004-.026-.004-.663-2.332c-.044-.154-.119-.237-.224-.25l.009-.07c.097.018.224.031.382.048.206.018.36.031.461.031l-.009.07c-.092-.004-.158 0-.198.013s-.061.048-.066.092a.475.475 0 0 0 .026.171l.488 1.783.725-1.458a.917.917 0 0 0 .101-.285c.009-.075-.013-.132-.061-.171s-.127-.062-.233-.075l.009-.07c.127.022.264.04.404.053zM20.907 2.843c-.044 0-.079.018-.105.053s-.057.092-.088.176l-.628 1.669c-.031.083-.048.149-.048.193s.013.079.044.105a.77.77 0 0 0 .167.092l-.026.066a12.173 12.173 0 0 0-.422-.171 7.301 7.301 0 0 0-.435-.154l.026-.066c.083.026.145.04.184.04s.079-.018.105-.053a.72.72 0 0 0 .088-.176l.628-1.669c.031-.083.048-.149.048-.193s-.013-.079-.044-.105a.77.77 0 0 0-.167-.092l.026-.066c.092.04.233.097.426.171.18.07.325.119.43.149l-.026.066a.484.484 0 0 0-.184-.035zM24.816 5.167c-.044-.009-.088.004-.127.031s-.088.079-.141.154l-1.274 1.726-.066-.048.171-2.776-1.129 1.529c-.053.075-.088.136-.105.184s-.009.092.013.136a.603.603 0 0 0 .149.154l-.044.057a6.304 6.304 0 0 0-.29-.228 3.265 3.265 0 0 0-.277-.189l.044-.057c.07.048.127.075.171.079a.164.164 0 0 0 .127-.031.71.71 0 0 0 .141-.154l1.037-1.405c.053-.075.088-.132.101-.171s.009-.079-.013-.114a.65.65 0 0 0-.136-.136l.044-.057c.057.053.145.123.264.206.088.066.163.119.233.158l-.141 2.328.914-1.239c.053-.075.092-.136.105-.184s.009-.092-.013-.136a.532.532 0 0 0-.149-.154l.044-.057c.066.057.163.132.29.228.114.083.206.149.277.189l-.044.057a.51.51 0 0 0-.176-.079zM26.287 7.148c.114-.083.233-.176.36-.29A53.677 53.677 0 0 0 27.82 8.51a6.436 6.436 0 0 0-.391.246 4.05 4.05 0 0 0-.233.18l-.048-.066c.141-.123.237-.224.294-.299s.079-.154.075-.237c-.004-.083-.057-.184-.141-.307l-.114-.158-1.665 1.186c-.079.057-.136.11-.163.149s-.035.088-.018.141a.865.865 0 0 0 .11.206l-.057.044a7.648 7.648 0 0 0-.299-.435 10.645 10.645 0 0 0-.316-.426l.057-.044c.066.083.119.141.163.171s.088.04.136.026a.661.661 0 0 0 .193-.105l1.665-1.186-.114-.158c-.088-.123-.167-.198-.242-.233s-.158-.04-.246-.009a2.491 2.491 0 0 0-.378.18l-.048-.066a2.04 2.04 0 0 0 .246-.163zM27.13 13.244l-.07.022a9.404 9.404 0 0 0-.272-.804l.07-.022a.65.65 0 0 0 .092.176c.031.031.07.04.114.022a.475.475 0 0 0 .145-.092l.488-.4-.277-.821-.408-.018c-.132-.009-.233 0-.303.026s-.114.066-.132.123a.515.515 0 0 0 .026.242l-.07.022a6.419 6.419 0 0 0-.123-.395 2.661 2.661 0 0 0-.097-.25l.07-.022c.061.105.193.162.387.167l2.337.105.018.053-1.862 1.55c-.114.11-.158.211-.132.316zm1.524-1.867-1.151-.048.259.773.892-.725zM27.451 16.604c.044-.018.066-.04.066-.07 0-.018-.004-.031-.013-.044s-.026-.04-.053-.075c-.066-.083-.114-.171-.149-.259s-.053-.189-.053-.299a1.275 1.275 0 0 1 .141-.637.994.994 0 0 1 .435-.413c.189-.097.417-.145.685-.149.277-.004.518.04.725.136s.369.228.483.404c.114.176.176.373.176.593 0 .097-.009.184-.026.259s-.044.141-.075.198c-.031.057-.07.123-.123.193-.022.031-.035.057-.035.075 0 .044.075.075.22.088v.083c-.154-.009-.43-.009-.826 0v-.083c.127-.022.233-.048.316-.075s.154-.066.215-.114c.083-.07.154-.163.202-.277s.07-.228.07-.351c-.004-.158-.057-.294-.163-.413s-.255-.206-.444-.272a2.092 2.092 0 0 0-.668-.088c-.29.004-.523.04-.707.105s-.316.163-.404.29c-.088.127-.127.29-.123.488a.655.655 0 0 0 .119.373c.031.044.057.07.088.083a.272.272 0 0 0 .114.018l.347-.004a.643.643 0 0 0 .22-.031.15.15 0 0 0 .092-.105.734.734 0 0 0 .026-.233h.07c-.004.119-.009.286-.004.51.004.167.009.294.018.373h-.07c-.004-.057-.018-.097-.031-.119s-.044-.04-.083-.048a.82.82 0 0 0-.198-.009l-.712.013v-.07c.04-.018.088-.026.132-.044zM26.928 20.342a4.52 4.52 0 0 0-.448-.114c.057-.154.141-.413.259-.782.141-.439.242-.773.303-.997l.07.022a.776.776 0 0 0-.031.189c.004.044.022.075.057.101s.097.053.18.079l1.7.536c.088.026.149.04.193.04s.079-.018.105-.053a.754.754 0 0 0 .083-.171l.07.022c-.079.224-.184.553-.325.993-.105.334-.18.575-.215.72a3.633 3.633 0 0 0-.615-.206l.026-.079c.154.031.272.044.351.044s.145-.026.198-.079a.604.604 0 0 0 .136-.255l.088-.285c.026-.083.04-.145.035-.184s-.018-.075-.053-.101a.588.588 0 0 0-.18-.079l-.808-.255-.07.228c-.035.114-.026.202.031.264s.119.105.189.136c.07.031.114.053.132.061l-.026.079a3.546 3.546 0 0 0-.321-.114l-.163-.048a7.297 7.297 0 0 0-.492-.132l.026-.079c.018.004.075.013.171.035.097.018.18.009.246-.026s.11-.101.141-.193l.07-.228-.826-.259c-.088-.026-.149-.04-.193-.04s-.079.018-.101.053a.604.604 0 0 0-.079.176l-.079.25c-.044.145-.061.259-.044.343a.342.342 0 0 0 .132.22c.075.057.189.123.343.193l-.026.079c-.053-.04-.136-.066-.242-.101zM25.677 25.731c.018-.04.013-.079-.004-.119s-.061-.088-.127-.154l-1.291-1.234c-.066-.061-.119-.101-.158-.119s-.079-.018-.119 0a.557.557 0 0 0-.149.119l-.053-.048c.083-.075.189-.184.325-.321.141-.149.246-.264.312-.338l.053.048a.842.842 0 0 0-.11.154c-.018.04-.013.079.004.119s.061.088.127.154l1.291 1.234c.066.061.119.101.158.119s.079.018.119 0a.557.557 0 0 0 .149-.119l.053.048a5.687 5.687 0 0 0-.325.325 6.906 6.906 0 0 0-.307.338l-.053-.048a.778.778 0 0 0 .105-.158zM22.018 28.41c.026-.04.031-.079.022-.127s-.04-.11-.088-.193l-1.089-1.849.07-.044 2.486 1.243-.962-1.634c-.048-.079-.088-.136-.127-.167s-.083-.044-.132-.04a.594.594 0 0 0-.198.075l-.04-.061c.079-.035.184-.097.321-.176.123-.075.215-.132.281-.18l.035.061a.418.418 0 0 0-.141.127c-.026.04-.031.079-.022.127s.04.11.088.193l.887 1.506c.044.079.083.132.119.158s.07.04.114.031a.78.78 0 0 0 .176-.07l.035.061a5.008 5.008 0 0 0-.531.312l-2.086-1.041.782 1.326a.658.658 0 0 0 .127.167c.035.031.079.044.132.04s.119-.031.202-.075l.035.061c-.079.035-.184.097-.321.176a4.544 4.544 0 0 0-.281.18l-.035-.061a.717.717 0 0 0 .141-.127zM19.602 28.986c.031.136.07.285.123.444-.198.035-.527.105-.993.202-.466.101-.791.176-.984.224a4.902 4.902 0 0 0-.075-.457 2.126 2.126 0 0 0-.075-.285l.079-.018c.057.18.11.307.158.391s.11.136.189.163c.079.026.193.022.338-.009l.189-.04-.43-1.998c-.022-.097-.044-.167-.075-.206s-.066-.066-.119-.07a.8.8 0 0 0-.237.018l-.013-.07c.123-.018.299-.053.518-.101.233-.053.409-.092.518-.123l.013.07c-.105.026-.176.053-.22.079s-.07.066-.079.114a.59.59 0 0 0 .018.22l.43 1.998.189-.04c.145-.031.25-.075.312-.132s.097-.132.105-.224a2.095 2.095 0 0 0-.018-.417l.079-.018c.013.07.031.167.057.285zM13.774 27.751a4.93 4.93 0 0 0 .018-.461c.162.022.435.048.821.083.457.04.804.07 1.041.083l-.004.07c-.088-.004-.149 0-.189.013s-.07.035-.088.075a.681.681 0 0 0-.04.193l-.158 1.779c-.009.088-.004.154.004.198s.035.075.075.092c.04.018.101.035.184.044l-.004.07a45.3 45.3 0 0 0-1.788-.158 3.366 3.366 0 0 0 .071-.646l.083.009c.004.158.013.272.035.351a.269.269 0 0 0 .119.176c.057.04.154.066.277.075l.299.026c.088.009.149.004.189-.004s.07-.035.088-.075a.681.681 0 0 0 .04-.193l.075-.843-.237-.022c-.119-.009-.202.018-.25.088a.611.611 0 0 0-.092.215c-.018.075-.026.123-.031.145l-.083-.009c.018-.119.031-.228.044-.338l.013-.171c.009-.123.018-.29.026-.509l.083.009c0 .018.004.075.004.176.004.101.026.18.079.233.048.057.123.088.22.097l.237.022.075-.861a.715.715 0 0 0-.004-.198c-.009-.04-.035-.07-.075-.088s-.101-.031-.184-.04l-.264-.022a.75.75 0 0 0-.347.031c-.079.031-.141.092-.184.176s-.079.211-.114.378l-.083-.009c0-.066.009-.154.022-.259zM10.317 26.122a.372.372 0 0 1 .22.035c.092.04.154.097.189.171.035.079.04.189.018.334l-.066.36a2.995 2.995 0 0 0-.04.299c-.004.07.013.136.044.193s.088.101.171.136l.316.132.321-.764c.035-.083.053-.145.057-.189s-.013-.079-.044-.11a.564.564 0 0 0-.163-.097l.026-.066c.101.048.237.11.417.184.189.079.334.136.43.167l-.026.066a.775.775 0 0 0-.184-.048c-.044 0-.079.013-.105.048a.589.589 0 0 0-.097.171l-.69 1.647c-.035.083-.053.145-.057.189s.013.079.044.11a.656.656 0 0 0 .163.101l-.026.066a10.102 10.102 0 0 0-.4-.18c-.088-.035-.18-.075-.286-.119s-.176-.07-.215-.088c-.171-.075-.307-.158-.409-.259s-.158-.206-.184-.321a.522.522 0 0 1 .035-.334.655.655 0 0 1 .474-.386.99.99 0 0 1 .435.018l-.04-.022a.688.688 0 0 1-.206-.176.392.392 0 0 1-.083-.193.779.779 0 0 1 .009-.264l.061-.373c.013-.075.022-.132.022-.176s-.004-.079-.018-.105a.107.107 0 0 0-.066-.057c-.035-.018-.07-.018-.101-.009s-.075.031-.132.061l-.035-.057a.745.745 0 0 1 .22-.097zm.22 1.563c-.105.013-.189.053-.255.119s-.123.154-.171.268c-.075.18-.092.338-.044.466s.167.233.365.316a.35.35 0 0 0 .167.04c.04 0 .075-.018.105-.053s.062-.092.092-.171l.343-.817-.224-.092a.766.766 0 0 0-.378-.075zM6.891 26.719c.04.013.079.004.114-.018s.083-.07.141-.141l1.102-1.405c.057-.07.092-.127.105-.167s.009-.079-.013-.114a.736.736 0 0 0-.132-.141l.044-.057c.083.075.198.171.351.29.162.127.285.22.369.277l-.044.057a.49.49 0 0 0-.167-.092.118.118 0 0 0-.114.018.698.698 0 0 0-.141.141l-1.102 1.405c-.057.07-.092.127-.105.167s-.009.079.013.114a.736.736 0 0 0 .132.141l-.044.057a9.568 9.568 0 0 0-.721-.566l.044-.057a.852.852 0 0 0 .167.092zM4.054 23.592a1.03 1.03 0 0 1 .127-.584c.105-.193.264-.365.483-.527.215-.154.43-.255.654-.294s.43-.026.624.048c.193.075.356.202.483.382.136.184.211.378.228.575s-.026.395-.127.584a1.626 1.626 0 0 1-.483.527c-.215.154-.43.255-.654.294-.22.04-.43.026-.624-.048s-.356-.202-.483-.378a1.155 1.155 0 0 1-.228-.58zm.659.782c.154.031.329.018.523-.044s.387-.163.589-.312c.202-.145.36-.303.47-.47a.97.97 0 0 0 .184-.492.615.615 0 0 0-.11-.417.583.583 0 0 0-.369-.233c-.154-.031-.329-.018-.523.044s-.386.163-.589.307c-.202.145-.36.303-.47.474a1.012 1.012 0 0 0-.189.492.592.592 0 0 0 .483.65zM4.392 18.304c.053.04.092.105.119.193a.338.338 0 0 1-.009.255c-.035.079-.119.154-.246.228l-.321.18c-.11.066-.193.119-.25.163s-.097.097-.119.158a.346.346 0 0 0 .004.22l.101.329.791-.246c.088-.026.145-.053.18-.079s.053-.061.057-.101a.64.64 0 0 0-.031-.189l.07-.022c.026.105.066.255.127.439.061.198.11.343.145.435l-.07.022c-.031-.083-.057-.141-.083-.171s-.061-.053-.105-.053a.565.565 0 0 0-.193.04l-1.704.527c-.088.026-.145.053-.18.079s-.053.061-.057.101a.623.623 0 0 0 .031.189l-.07.022a6.37 6.37 0 0 0-.119-.422c-.026-.088-.062-.189-.097-.294l-.075-.22c-.057-.18-.075-.338-.062-.479s.057-.255.127-.347a.535.535 0 0 1 .277-.189.647.647 0 0 1 .602.114.93.93 0 0 1 .268.347l-.004-.044c-.013-.11-.018-.198 0-.272s.048-.136.092-.189a.878.878 0 0 1 .211-.163l.325-.193c.066-.035.119-.07.149-.097s.057-.053.07-.079a.12.12 0 0 0 .004-.088c-.013-.04-.031-.066-.057-.083s-.07-.04-.132-.061l.022-.066a.738.738 0 0 1 .211.105zm-1.05 1.177c-.075-.07-.163-.11-.255-.119s-.198.004-.316.044c-.189.057-.316.149-.386.268s-.07.281-.009.479c.022.07.048.123.075.154s.066.048.11.048.11-.013.189-.035l.843-.264-.07-.233a.74.74 0 0 0-.18-.343zM4.054 14.136c.167-.075.268-.215.312-.426.013-.079.013-.158-.009-.233s-.061-.141-.123-.198a.468.468 0 0 0-.255-.114c-.092-.018-.176-.009-.255.022s-.158.079-.233.145a2.86 2.86 0 0 0-.259.264 3.01 3.01 0 0 1-.29.294c-.083.075-.176.127-.277.167s-.215.044-.343.022c-.132-.026-.242-.075-.321-.154s-.136-.171-.163-.281a.842.842 0 0 1-.004-.347c.013-.075.031-.132.053-.184s.044-.092.07-.123c.026-.031.053-.066.088-.101a.334.334 0 0 0 .075-.11c.004-.022-.004-.04-.026-.057s-.062-.031-.114-.048l.013-.079c.136.035.373.088.72.154l-.013.079a1.026 1.026 0 0 0-.351.018.568.568 0 0 0-.285.145.502.502 0 0 0-.154.294c-.018.083-.013.158.009.233s.061.132.114.18a.464.464 0 0 0 .202.097c.127.022.237.004.329-.057s.18-.141.264-.233c.083-.092.136-.154.167-.184.123-.132.224-.233.307-.307s.176-.127.277-.162a.636.636 0 0 1 .329-.018.664.664 0 0 1 .351.167c.088.088.145.189.176.312s.031.255.004.395a.818.818 0 0 1-.224.461.334.334 0 0 0-.075.11c-.004.022.004.04.026.057s.061.035.114.048l-.013.079a12.771 12.771 0 0 0-.843-.171l.013-.079c.246.022.448 0 .615-.075zM3.184 10.433a3.963 3.963 0 0 0-.422-.189c.097-.171.259-.47.479-.896.22-.422.373-.72.457-.9.145.092.277.171.395.233.105.057.198.097.268.127l-.04.075a1.956 1.956 0 0 0-.4-.127c-.092-.018-.176 0-.246.044s-.141.132-.206.264l-.088.176 1.814.944c.088.048.158.07.206.075s.092-.009.132-.044a.816.816 0 0 0 .136-.193l.066.035a14.477 14.477 0 0 0-.492.94l-.066-.035a.824.824 0 0 0 .079-.22c.009-.053-.004-.097-.04-.136s-.092-.079-.18-.127L3.222 9.53l-.092.171c-.07.132-.101.237-.097.321s.04.158.105.224c.066.066.176.154.334.255l-.04.075c-.057-.035-.145-.083-.25-.141zM6.285 5.386c.075-.075.136-.145.18-.198l.053.053c-.026.04-.04.097-.035.163s.022.158.057.268l.4 1.19.466.461c.066.061.114.105.154.123s.079.018.119 0a.751.751 0 0 0 .154-.114l.053.053a9.363 9.363 0 0 0-.645.65l-.053-.053c.057-.066.097-.114.114-.154s.018-.079-.004-.119a.613.613 0 0 0-.123-.154l-.386-.382-1.467-.43c-.088-.026-.154-.035-.198-.031s-.075.018-.097.04l-.053-.053c.07-.061.149-.132.228-.215.162-.167.281-.285.347-.365l.053.053c-.119.119-.145.211-.079.277a.27.27 0 0 0 .114.061l1.234.382-.325-.971c-.048-.141-.097-.237-.149-.285-.048-.048-.101-.061-.158-.044s-.123.061-.202.136l-.053-.053c.105-.097.202-.193.303-.29zM8.942 3.616c-.026.031-.04.07-.031.114s.031.105.075.184l.848 1.572a.613.613 0 0 0 .114.162c.031.031.07.04.11.035s.101-.031.176-.07l.233-.127c.132-.07.224-.145.272-.22s.066-.158.053-.259a1.612 1.612 0 0 0-.123-.395l.075-.04c.031.07.075.158.132.263.066.119.145.25.242.395-.145.07-.391.198-.729.382-.404.22-.712.387-.914.505l-.035-.061c.075-.044.127-.083.154-.114s.04-.07.031-.114a.669.669 0 0 0-.075-.184l-.857-1.572a.64.64 0 0 0-.114-.163.127.127 0 0 0-.11-.035.55.55 0 0 0-.18.066l-.031-.066c.092-.04.228-.11.409-.211.171-.092.303-.167.395-.224l.035.062a.759.759 0 0 0-.154.114zM14.292 3.897c.026.132.066.281.114.448-.163.026-.43.075-.808.149-.452.088-.791.158-1.023.211l-.013-.07a.59.59 0 0 0 .18-.066.133.133 0 0 0 .062-.097.717.717 0 0 0-.018-.198l-.343-1.752c-.018-.088-.035-.149-.062-.189s-.053-.062-.097-.066a.585.585 0 0 0-.189.009l-.013-.07a43.2 43.2 0 0 0 1.023-.189c.347-.07.593-.119.733-.154.013.158.035.299.057.422.018.092.035.163.053.215l-.079.018c-.048-.149-.092-.259-.132-.329s-.097-.114-.162-.136a.59.59 0 0 0-.29.004l-.294.057c-.083.018-.145.035-.18.057s-.057.053-.066.097c-.004.044 0 .11.018.198l.163.835.233-.048c.119-.022.189-.075.215-.154s.035-.154.031-.228c-.004-.075-.009-.123-.009-.145l.079-.018c.013.119.031.228.053.334l.035.167c.022.119.061.285.119.496l-.079.018c-.004-.018-.022-.07-.053-.167s-.075-.163-.141-.202c-.066-.04-.141-.048-.237-.031l-.233.044.167.848a.717.717 0 0 0 .057.189.142.142 0 0 0 .097.066c.04.004.105 0 .189-.018l.259-.053c.145-.031.255-.07.325-.123s.11-.127.127-.22c.018-.092.018-.224.004-.395l.079-.018c.013.066.026.149.048.255zM11.332 20.671c-.202-.272-.378-.571-.531-.9s-.277-.663-.369-1.006c-.202-1.507-.206-2.969-.018-4.388s.496-2.815.918-4.195c.07-.154.224-.228.461-.228s.47.053.707.158c.237.105.43.246.584.422s.189.36.105.549c-.132.281-.259.663-.387 1.138a27.682 27.682 0 0 0-.676 3.391 26.22 26.22 0 0 0-.193 1.81c-.04.575-.048 1.098-.026 1.564s.092.835.211 1.102c.553-.742 1.059-1.511 1.52-2.306s.892-1.599 1.296-2.42c.404-.817.791-1.643 1.155-2.482.365-.835.725-1.66 1.076-2.473.176-.413.351-.848.523-1.304a3.77 3.77 0 0 1 .681-1.181c.119-.105.211-.141.272-.105.066.035.11.101.132.202s.035.206.035.316v.255c-.083.54-.154 1.076-.211 1.607s-.184 1.041-.369 1.537c-.307.777-.619 1.546-.944 2.315-.325.764-.672 1.52-1.041 2.262s-.773 1.463-1.199 2.161c-.43.703-.896 1.37-1.405 2.003-.4.505-.799.773-1.19.804-.409.035-.773-.171-1.116-.606zM18.605 18.677c-.237-.329-.47-.663-.698-1.006s-.343-.716-.343-1.129c0-.457.132-.892.395-1.3a3.64 3.64 0 0 1 .909-.979c.141-.092.285-.171.43-.228s.303-.053.47.018c.07.035.145.062.22.079s.145.04.202.061c.057.022.123.057.193.105s.105.11.105.193c0 .329.009.597.026.804s.044.382.079.531c.035.149.07.277.105.387.035.114.07.233.105.36a.503.503 0 0 1-.018.299c-.035.083-.123.092-.264.035-.259-.092-.452-.281-.575-.567s-.215-.54-.272-.777c-.013-.048-.04-.127-.088-.246s-.075-.202-.088-.246c-.092-.022-.206.009-.334.097a1.288 1.288 0 0 0-.536.891.96.96 0 0 0 .114.602c.048.07.114.158.202.255.088.101.176.202.264.307s.176.211.264.307c.088.097.163.18.22.237.07.07.119.11.141.114s.083-.009.176-.044c.119-.057.299-.136.54-.228s.496-.189.76-.281c.264-.092.518-.171.76-.237s.426-.097.558-.097c.083 0 .141.031.176.088.035.035.031.083-.018.141s-.11.119-.184.176c-.075.057-.158.11-.237.158-.083.048-.136.075-.158.088-.202.119-.452.25-.76.4-.307.145-.571.29-.795.43-.022.022-.066.048-.132.07s-.114.048-.149.07c.141.316.242.593.299.821s.079.448.061.663c-.018.211-.061.426-.132.646s-.167.47-.281.751c-.167.272-.334.531-.505.777s-.36.47-.575.672c-.211.202-.444.36-.69.474a1.844 1.844 0 0 1-.813.176c-.167 0-.325-.022-.479-.061s-.281-.127-.387-.255c-.272-.294-.422-.615-.457-.962s-.004-.69.088-1.032c.07-.211.158-.404.264-.584.259-.448.545-.826.856-1.138.316-.307.641-.606.984-.887zm.602.795c-.132.132-.307.316-.531.558s-.43.505-.628.786c-.193.281-.351.562-.474.839s-.154.514-.097.716c.237-.105.479-.281.725-.523s.466-.505.654-.795c.189-.29.321-.575.395-.856.075-.285.061-.527-.044-.725z"/><path fill="#292f36" d="M15.742 25.828c-5.495 0-9.966-4.471-9.966-9.966s4.471-9.966 9.966-9.966c5.495 0 9.966 4.471 9.966 9.966s-4.471 9.966-9.966 9.966zm0-19.493c-5.253 0-9.527 4.274-9.527 9.527s4.274 9.527 9.527 9.527c5.253 0 9.527-4.274 9.527-9.527s-4.274-9.527-9.527-9.527z"/></symbol><symbol id="icon-home" viewBox="0 0 96 32"><path d="M8.461.284v.135L7.9.554v5.98l.561.135v.135H5.803v-.135l.561-.135V1.437L4.163 6.898h-.28L1.028 1.437v4.952l.747.28v.135H0v-.135l.747-.28V.555L.186.42V.285h1.163c.177 0 .332.021.457.062s.249.093.343.166c.104.073.187.156.26.249s.135.208.197.322l2.035 3.893 1.557-3.893a1.36 1.36 0 0 1 .176-.343c.062-.093.145-.176.239-.249s.208-.125.343-.156c.135-.031.301-.052.509-.052h.997zM11.783 2.018c.384 0 .737.052 1.038.166s.561.28.779.488c.218.218.374.478.488.779s.166.654.166 1.038-.052.737-.166 1.038-.28.561-.488.779c-.218.218-.478.374-.779.488s-.654.166-1.038.166-.737-.052-1.038-.166-.561-.28-.779-.488c-.218-.218-.374-.478-.488-.779s-.166-.654-.166-1.038.052-.737.166-1.038.28-.561.488-.779c.218-.218.478-.374.779-.488s.644-.166 1.038-.166zm0 4.765a.585.585 0 0 0 .322-.104c.104-.073.197-.187.28-.363s.156-.405.208-.696c.052-.301.083-.675.083-1.121 0-.457-.031-.831-.083-1.121s-.125-.529-.208-.696c-.083-.166-.176-.291-.28-.363a.546.546 0 0 0-.644 0c-.104.073-.197.187-.28.363s-.156.405-.208.696a6.684 6.684 0 0 0-.083 1.121c0 .457.031.831.083 1.121s.125.529.208.696.177.291.28.363a.626.626 0 0 0 .322.104zM18.79.284c.561 0 .841.28.841.841v5.419l.561.135v.135h-.841c-.228 0-.405-.031-.54-.104s-.249-.156-.322-.239a1.035 1.035 0 0 1-.208-.353 1.63 1.63 0 0 1-.311.426c-.104.104-.249.197-.426.291s-.384.135-.623.135c-.27 0-.519-.052-.747-.156-.239-.104-.436-.26-.602-.467s-.311-.467-.405-.768c-.104-.311-.145-.664-.145-1.08s.052-.768.145-1.08c.104-.311.239-.561.426-.768.176-.208.394-.363.644-.467a2.166 2.166 0 0 1 1.287-.104c.135.042.249.083.343.135.114.052.208.114.291.187V.585L17.597.45V.315h1.194V.284zm-.654 2.388c-.073-.073-.135-.135-.218-.187-.073-.052-.145-.093-.228-.135s-.166-.052-.259-.052c-.114 0-.228.031-.332.093s-.187.166-.27.322a2.483 2.483 0 0 0-.176.664 7.975 7.975 0 0 0-.062 1.111c0 .446.021.799.062 1.08s.093.498.166.654c.062.156.135.27.228.322a.474.474 0 0 0 .249.083c.145 0 .27-.042.374-.114s.187-.166.259-.26a2.18 2.18 0 0 0 .218-.374V2.671h-.01zM23.317 6.97c-.799 0-1.422-.218-1.858-.654-.446-.436-.664-1.049-.664-1.817 0-.384.052-.737.166-1.038s.27-.561.467-.779c.197-.218.436-.374.727-.488.28-.114.592-.166.934-.166.353 0 .664.052.934.145.28.104.509.239.706.405s.343.363.446.592c.104.228.156.467.156.727 0 .083 0 .166-.01.228s-.021.125-.031.176c-.021.062-.031.114-.052.156-.27.052-.561.104-.872.135-.259.042-.561.073-.903.093s-.696.042-1.069.042c0 .384.031.706.083.965s.135.467.228.612c.104.156.218.26.353.322s.291.093.446.093c.187 0 .363-.031.529-.104s.311-.156.426-.27c.125-.114.218-.249.291-.394s.104-.291.104-.446h.228c0 .187-.042.363-.125.54s-.208.332-.363.467a1.848 1.848 0 0 1-.561.322 1.736 1.736 0 0 1-.716.135zm-.935-2.481c.208 0 .394 0 .561-.01s.301-.021.415-.031c.135-.01.239-.031.332-.042.01-.062.031-.135.042-.208s.021-.145.031-.228c.01-.083.01-.176.01-.27 0-.28-.021-.519-.062-.706s-.093-.343-.166-.467c-.062-.114-.135-.208-.228-.249s-.166-.073-.249-.073c-.083 0-.166.031-.249.093s-.156.176-.228.332c-.062.166-.125.394-.166.696s-.042.685-.042 1.163zM29.255 2.34c-.187 0-.353.042-.498.114s-.27.166-.374.26a2.607 2.607 0 0 0-.301.374v3.457l.561.135v.135h-2.616V6.68l.561-.135V2.434l-.561-.135v-.135h.841a1.2 1.2 0 0 1 .54.114c.135.073.249.156.332.239a.994.994 0 0 1 .208.343 1.91 1.91 0 0 1 .343-.374c.114-.093.26-.176.436-.26s.374-.114.613-.114c.332 0 .581.083.747.228.166.156.239.374.239.654 0 .208-.062.384-.187.509s-.301.187-.509.187h-.145c-.052 0-.083-.01-.114-.01-.042-.01-.083-.01-.114-.031V2.341zM34.342 3.554c0-.208-.021-.394-.062-.55s-.093-.28-.166-.374a.512.512 0 0 0-.228-.218.564.564 0 0 0-.249-.073c-.145 0-.27.042-.374.114s-.197.166-.26.26a2.21 2.21 0 0 0-.208.374v3.457l.561.135v.135H30.74v-.135l.561-.135V2.433l-.561-.135v-.135h.841a1.2 1.2 0 0 1 .54.114c.135.073.249.156.332.239a.994.994 0 0 1 .208.343 1.79 1.79 0 0 1 .312-.426c.104-.104.249-.197.415-.291s.384-.135.633-.135c.27 0 .519.042.737.135a1.7 1.7 0 0 1 .945.831c.094.187.135.374.135.571v2.99l.561.135v.135h-1.215c-.561 0-.841-.28-.841-.841V3.554zM.986 13.375v-.384h7.215v.384l-1.516.384v7.838h5.44v-7.838l-1.516-.384v-.384h7.215v.384l-1.516.384v16.195l1.516.384v.384h-7.215v-.395l1.516-.384V22.23h-5.44v7.713l1.516.384v.384H.986v-.384l1.516-.384V13.748l-1.516-.374zM26.794 17.673c1.049 0 1.983.156 2.813.457s1.526.747 2.107 1.329c.581.581 1.028 1.287 1.329 2.118s.457 1.765.457 2.813c0 1.049-.156 1.983-.457 2.813s-.748 1.526-1.329 2.107a5.745 5.745 0 0 1-2.107 1.329c-.83.301-1.765.457-2.813.457s-1.983-.156-2.813-.457c-.83-.301-1.526-.747-2.107-1.329s-1.028-1.287-1.329-2.107c-.301-.831-.457-1.765-.457-2.813s.156-1.983.457-2.813c.301-.831.747-1.526 1.329-2.118s1.287-1.028 2.107-1.329c.831-.301 1.765-.457 2.813-.457zm0 12.904c.291 0 .571-.093.862-.28s.54-.509.768-.976c.228-.467.415-1.1.561-1.9s.218-1.817.218-3.052-.073-2.253-.218-3.052-.332-1.433-.561-1.9c-.228-.467-.488-.789-.768-.976s-.571-.28-.862-.28-.571.093-.862.28c-.291.187-.54.509-.768.976s-.415 1.1-.561 1.9c-.145.799-.218 1.817-.218 3.052s.073 2.253.218 3.052c.145.799.332 1.433.561 1.9s.488.789.768.976c.291.187.571.28.862.28zM52.468 21.846c0-.602-.052-1.121-.156-1.526s-.228-.747-.395-1.007a1.917 1.917 0 0 0-.529-.571 1.141 1.141 0 0 0-.571-.177c-.322 0-.602.104-.851.311s-.457.446-.644.696a5.772 5.772 0 0 0-.529 1.007v9.364l1.526.384v.384h-7.08v-.384l1.516-.384v-8.098c0-.602-.052-1.121-.156-1.526s-.228-.747-.395-1.007a1.917 1.917 0 0 0-.529-.571 1.141 1.141 0 0 0-.571-.177c-.322 0-.602.104-.851.311s-.457.446-.644.696a5.112 5.112 0 0 0-.529 1.007v9.364l1.516.384v.384h-7.08v-.384l1.516-.384V18.813l-1.516-.384v-.384h2.274c.592 0 1.08.104 1.453.301.384.197.675.426.903.654.249.291.436.602.561.934.218-.426.488-.799.81-1.142.291-.291.644-.55 1.059-.789.426-.239.934-.353 1.547-.353 1.007 0 1.889.228 2.616.675a4.558 4.558 0 0 1 1.682 1.734c.218-.436.488-.831.81-1.194a5.192 5.192 0 0 1 1.059-.831c.426-.249.934-.384 1.547-.384a5.33 5.33 0 0 1 1.9.332c.571.218 1.069.519 1.484.903s.737.82.966 1.329c.228.509.343 1.049.343 1.619v8.098l1.516.384v.384h-3.291c-1.516 0-2.274-.758-2.274-2.274v-6.582h-.01zM66.39 31.086c-2.159 0-3.841-.592-5.035-1.786s-1.796-2.824-1.796-4.921c0-1.049.156-1.983.457-2.813s.727-1.526 1.267-2.118c.54-.581 1.194-1.028 1.962-1.329s1.609-.457 2.512-.457c.945 0 1.796.135 2.543.405s1.391.633 1.91 1.09c.519.457.924.997 1.204 1.609s.415 1.266.415 1.962c0 .239-.01.446-.042.623s-.052.332-.093.467c-.052.166-.093.311-.125.426-.748.156-1.526.28-2.357.384-.706.104-1.526.187-2.45.27-.924.073-1.9.114-2.907.114 0 1.049.073 1.921.228 2.616s.363 1.256.633 1.671c.27.415.592.706.965.882s.779.27 1.215.27c.509 0 .986-.093 1.433-.28s.83-.436 1.163-.747c.332-.311.592-.664.789-1.059s.291-.799.291-1.204h.633c0 .509-.114.997-.343 1.464-.228.478-.55.893-.976 1.256s-.924.654-1.516.872a5.802 5.802 0 0 1-1.983.332zm-2.534-6.707c.571 0 1.08-.01 1.516-.042s.81-.052 1.111-.083c.353-.031.654-.073.914-.125.031-.166.073-.353.125-.561.031-.187.062-.395.083-.623s.042-.467.042-.716c0-.758-.062-1.391-.176-1.91s-.27-.934-.446-1.256c-.177-.322-.384-.55-.602-.685-.228-.135-.457-.208-.675-.208s-.446.083-.675.239c-.228.166-.426.467-.602.914s-.322 1.08-.446 1.889c-.104.81-.166 1.869-.166 3.166zM84.256 30.453V20.186l-9.073-7.184v17.451h9.073zM95.479 30.453V20.186l-8.928-7.184v17.451h8.928z"/></symbol><symbol id="icon-brand" viewBox="0 0 119 32"><path fill="#292f36" d="M25.307 31.394H5.803A5.803 5.803 0 0 1 0 25.591V6.087A5.803 5.803 0 0 1 5.803.284h19.504a5.803 5.803 0 0 1 5.803 5.803v19.504a5.803 5.803 0 0 1-5.803 5.803z"/><path fill="#fff" d="M21.16 16.125c.555.696.837 1.506.837 2.422 0 1.347-.449 2.404-1.347 3.152s-2.184 1.136-3.857 1.136H9.484V7.117h7.132c1.603 0 2.835.352 3.707 1.048s1.312 1.691 1.312 2.976c0 .951-.255 1.735-.757 2.369s-1.162 1.039-1.981 1.233c.96.229 1.708.687 2.263 1.382zm-7.881-2.58h2.492c1.321 0 1.981-.564 1.981-1.691s-.678-1.691-2.025-1.691h-2.448v3.381zm4.825 4.473c0-.564-.185-1.004-.555-1.321s-.898-.476-1.576-.476h-2.686v3.531h2.712c1.4-.009 2.104-.581 2.104-1.735z"/><path fill="#292f36"  d="M49.135 22.835 45.736 16.9h-.863v5.935h-3.804V7.117h6.49c1.242 0 2.298.211 3.152.643.863.431 1.506 1.021 1.937 1.77s.643 1.603.643 2.571c0 1.145-.317 2.113-.942 2.915-.634.801-1.541 1.347-2.747 1.647l3.734 6.181h-4.2v-.009zm-4.262-8.533h2.351c.757 0 1.312-.167 1.664-.502s.537-.828.537-1.479c0-.625-.185-1.109-.546-1.47-.361-.352-.916-.537-1.655-.537h-2.351v3.989zM70.497 19.973h-5.891l-.977 2.871h-3.998L65.39 7.241h4.376l5.759 15.603h-4.042l-.986-2.871zm-.978-2.897L67.564 11.3l-1.981 5.776h3.936zM96.508 22.835h-3.804l-6.357-9.651v9.651h-3.804V7.117h3.804l6.357 9.739V7.117h3.804v15.718zM117.835 19.049c-.66 1.189-1.611 2.122-2.844 2.791-1.242.669-2.695 1.004-4.368 1.004h-5.935V7.126h5.935c1.691 0 3.153.326 4.377.977 1.233.652 2.175 1.567 2.835 2.756s.986 2.545.986 4.095c0 1.532-.335 2.897-.986 4.095zm-4.095-.793c.819-.784 1.233-1.893 1.233-3.311 0-1.426-.414-2.527-1.233-3.311s-1.972-1.18-3.46-1.18h-1.796v8.982h1.796c1.488 0 2.641-.387 3.46-1.18z"/></symbol><symbol id="icon-classic" viewBox="0 0 76 32"><path d="M0 19.328V.255h11.233v19.064L0 19.328zm9.872-4.437.289-2.107-1.044-.103-.317 1.622c-.653.326-1.454.485-2.414.485-1.305 0-2.34-.41-3.095-1.24-.764-.83-1.137-1.92-1.137-3.281 0-1.324.373-2.415 1.109-3.272s1.706-1.286 2.909-1.286c.615 0 1.137.075 1.557.214s.802.326 1.165.569l.308 1.603 1.063-.103-.308-2.107a5.56 5.56 0 0 0-1.594-.932c-.615-.233-1.38-.354-2.284-.354-1.072 0-1.995.261-2.769.792S1.93 6.622 1.502 7.488a6.338 6.338 0 0 0-.643 2.825c0 1.594.494 2.927 1.482 3.99s2.275 1.594 3.869 1.594c1.566 0 2.787-.336 3.664-1.007zM15.046 19.328V.255h4.829v19.064h-4.829v.009zm.513-3.598h3.813v-.96h-1.314V4.124h-2.517v.96h1.333v9.686H15.56v.96zM23.688 19.328V.255h8.483v19.064h-8.483v.009zm1.538-10.534-.27 1.734.979.121.289-1.296c.42-.205.895-.308 1.454-.308.671 0 1.128.168 1.361.503s.345.774.345 1.314v.671a15.876 15.876 0 0 0-1.334-.066c-.839 0-1.641.149-2.386.447s-1.119.923-1.119 1.864c0 .802.252 1.352.764 1.65.513.308 1.016.457 1.51.457.606 0 1.128-.159 1.557-.475s.764-.671 1.007-1.081v.037c.019 1.016.475 1.52 1.37 1.52.345 0 .671-.084.979-.252l-.019-.774a1.248 1.248 0 0 1-.503.103c-.429 0-.643-.27-.643-.811v-3.57c0-1.678-.895-2.517-2.685-2.517-.494 0-.96.056-1.398.168a4.508 4.508 0 0 0-1.259.559zm4.148 4.121c-.047.615-.298 1.109-.755 1.464-.457.364-.942.541-1.464.541-.326 0-.643-.093-.942-.27-.308-.177-.457-.513-.457-.998 0-.587.233-.96.68-1.137.457-.177.96-.261 1.529-.261.252 0 .494.009.727.037.233.019.466.037.671.047v.578h.009zM35.993 19.328V.255h7.709v19.064h-7.709v.009zm6.898-5.77c0-.597-.158-1.035-.475-1.324s-.699-.485-1.165-.597c-.466-.112-.923-.205-1.38-.28s-.848-.196-1.165-.354c-.317-.158-.475-.438-.475-.839 0-.382.149-.662.457-.848s.69-.27 1.165-.27c.55 0 1.063.121 1.538.373l.186 1.212.979-.121-.186-1.753c-.317-.196-.699-.354-1.156-.485s-.942-.205-1.464-.205c-.69 0-1.324.168-1.911.494s-.876.886-.876 1.687c0 .587.158 1.016.475 1.286.317.28.709.466 1.184.578s.942.205 1.408.289c.466.075.858.205 1.175.373s.475.457.475.876c0 .429-.205.746-.615.951s-.876.308-1.408.308a3.738 3.738 0 0 1-1.669-.373l.047-.998-.942-.103-.233 1.706c.326.214.755.392 1.277.531s1.044.214 1.575.214c.904 0 1.659-.205 2.265-.625.606-.401.914-.979.914-1.706zM47.515 19.328V.255h7.709v19.064h-7.709v.009zm6.898-5.77c0-.597-.158-1.035-.475-1.324s-.699-.485-1.165-.597c-.466-.112-.923-.205-1.38-.28s-.848-.196-1.165-.354c-.317-.158-.475-.438-.475-.839 0-.382.149-.662.457-.848s.69-.27 1.165-.27c.55 0 1.063.121 1.538.373l.187 1.212.979-.121-.186-1.753c-.317-.196-.699-.354-1.156-.485s-.942-.205-1.464-.205c-.69 0-1.324.168-1.911.494s-.876.886-.876 1.687c0 .587.158 1.016.475 1.286.317.28.709.466 1.184.578s.941.205 1.408.289c.466.075.858.205 1.175.373s.475.457.475.876c0 .429-.205.746-.615.951s-.876.308-1.408.308a3.738 3.738 0 0 1-1.669-.373l.047-.998-.942-.103-.233 1.706c.326.214.755.392 1.277.531s1.044.214 1.575.214c.904 0 1.659-.205 2.265-.625.606-.401.913-.979.913-1.706zM59.037 19.328V.255h5.081v19.064h-5.081v.009zm.746-3.598h3.813v-.96h-1.314V8.226h-2.526v.96h1.352v5.584h-1.314v.96h-.009zm1.193-10.982v1.538h1.286V4.748h-1.286zM67.931 19.328V.255h8.12v19.064h-8.12v.009zm7.392-6.124-1.016-.224c-.223 1.268-.904 1.902-2.023 1.902-.746 0-1.315-.252-1.706-.755s-.588-1.212-.588-2.107c0-.811.177-1.501.522-2.079s.923-.858 1.724-.858c.616 0 1.156.14 1.604.419l.289 1.268.979-.121-.289-1.809c-.382-.289-.783-.494-1.202-.606s-.876-.168-1.37-.168c-1.166 0-2.051.41-2.629 1.23-.587.82-.876 1.753-.876 2.787 0 1.203.308 2.144.933 2.806.615.671 1.445 1.007 2.48 1.007s1.799-.289 2.284-.858c.485-.578.783-1.184.886-1.836zM4.857 29.741a2.223 2.223 0 0 1-.942.914c-.419.214-.914.326-1.492.326H.754v-5.258h1.669c.578 0 1.081.103 1.492.317s.727.513.942.914c.214.401.317.858.317 1.398 0 .531-.103.997-.317 1.389zm-.923.103c.364-.354.541-.848.541-1.492s-.177-1.137-.541-1.492c-.364-.354-.886-.531-1.575-.531h-.942v4.046h.942c.69 0 1.212-.177 1.575-.531zM8.632 26.273v1.799h1.995v.522H8.632v1.836h2.219v.55H7.952v-5.258h2.899v.55H8.632zM16.743 30.31c-.121.214-.298.392-.541.522s-.541.205-.904.205a2.28 2.28 0 0 1-.932-.186 1.734 1.734 0 0 1-.653-.522 1.555 1.555 0 0 1-.28-.755h.727c.019.149.065.298.149.438s.214.261.373.354c.159.093.354.14.587.14.298 0 .531-.075.69-.242s.242-.364.242-.615c0-.214-.056-.392-.168-.522s-.252-.242-.41-.317-.392-.158-.671-.252c-.336-.112-.597-.214-.802-.308s-.373-.242-.513-.438-.214-.447-.214-.764c0-.27.065-.513.196-.727a1.27 1.27 0 0 1 .569-.485c.242-.112.541-.168.867-.168.513 0 .932.121 1.23.373.308.252.475.569.531.96h-.727a1.006 1.006 0 0 0-.317-.55c-.177-.159-.41-.242-.709-.242-.27 0-.494.075-.653.214-.168.14-.242.345-.242.597 0 .205.056.373.159.494.112.13.242.224.401.298s.382.149.653.242c.336.112.606.214.82.317.205.103.382.252.522.447s.214.466.214.802a1.645 1.645 0 0 1-.196.69zM20.378 25.723v5.258h-.681v-5.258h.681zM27.258 26.124c.419.308.699.718.839 1.24h-.718a1.565 1.565 0 0 0-.625-.764c-.289-.196-.634-.289-1.035-.289-.354 0-.681.084-.96.252s-.503.401-.671.709a2.347 2.347 0 0 0-.242 1.091c0 .429.084.802.242 1.109s.392.55.68.718.625.252 1.007.252c.326 0 .615-.075.886-.205.27-.14.485-.345.662-.606s.27-.578.308-.932h-2.07v-.503h2.638v.625c-.047.42-.177.792-.392 1.137s-.503.606-.867.802a2.566 2.566 0 0 1-1.24.298c-.503 0-.951-.112-1.342-.336s-.69-.541-.904-.951c-.214-.401-.326-.867-.326-1.389s.112-.988.326-1.389c.214-.401.522-.727.904-.951s.83-.345 1.333-.345c.634-.019 1.147.13 1.566.429zM35.079 30.981h-.681l-2.731-4.158v4.158h-.68v-5.258h.68l2.731 4.158v-4.158h.681v5.258zM44.886 30.31c-.121.214-.298.392-.541.522s-.541.205-.904.205a2.28 2.28 0 0 1-.932-.186 1.734 1.734 0 0 1-.653-.522 1.555 1.555 0 0 1-.28-.755h.727c.019.149.065.298.149.438s.214.261.373.354c.158.093.354.14.587.14.298 0 .531-.075.69-.242s.242-.364.242-.615c0-.214-.056-.392-.168-.522s-.252-.242-.41-.317-.392-.158-.671-.252c-.336-.112-.597-.214-.802-.308s-.373-.242-.513-.438-.214-.447-.214-.764c0-.27.065-.513.196-.727a1.27 1.27 0 0 1 .569-.485c.242-.112.541-.168.867-.168.513 0 .932.121 1.23.373.308.252.475.569.531.96h-.727a1.006 1.006 0 0 0-.317-.55c-.177-.159-.41-.242-.708-.242-.27 0-.494.075-.653.214-.168.14-.242.345-.242.597a.75.75 0 0 0 .158.494c.112.13.242.224.401.298s.382.149.653.242c.336.112.606.214.82.317.205.103.382.252.522.447s.214.466.214.802a1.645 1.645 0 0 1-.196.69zM51.067 25.723v.55h-1.482v4.708h-.69v-4.708h-1.482v-.55h3.654zM54.236 25.723v3.151c0 .513.112.895.345 1.147.233.242.541.373.951.373.401 0 .709-.121.932-.373s.336-.625.336-1.137v-3.151h.681v3.151c0 .718-.177 1.258-.531 1.613-.354.364-.83.541-1.426.541-.587 0-1.063-.177-1.417-.541s-.531-.895-.531-1.613v-3.151h.662v-.009zM64.5 29.741a2.223 2.223 0 0 1-.942.914c-.42.214-.914.326-1.492.326h-1.669v-5.258h1.669c.578 0 1.081.103 1.492.317s.727.513.942.914.317.858.317 1.398c0 .531-.103.997-.317 1.389zm-.914.103c.364-.354.541-.848.541-1.492s-.177-1.137-.541-1.492c-.364-.354-.886-.531-1.575-.531h-.942v4.046h.942c.681 0 1.212-.177 1.575-.531zM68.285 25.723v5.258h-.68v-5.258h.68zM74.96 26.003c.391.233.699.55.923.96s.336.876.336 1.389-.112.979-.336 1.389a2.478 2.478 0 0 1-2.238 1.305 2.55 2.55 0 0 1-1.324-.345c-.392-.233-.709-.55-.933-.96s-.335-.876-.335-1.389.112-.979.335-1.389c.224-.41.532-.727.933-.96s.839-.345 1.324-.345c.485 0 .923.112 1.315.345zm-2.294.541a1.667 1.667 0 0 0-.671.718 2.36 2.36 0 0 0-.242 1.091c0 .41.084.774.242 1.091s.382.55.671.718c.289.168.606.252.97.252.354 0 .68-.084.969-.252s.513-.41.671-.718.242-.671.242-1.081c0-.419-.084-.783-.242-1.091s-.382-.55-.671-.718a1.877 1.877 0 0 0-.969-.252 1.82 1.82 0 0 0-.97.242z"/></symbol><symbol id="icon-fb" viewBox="0 0 16 32"><path d="m14.681 17.2.787-5.175h-5.002V8.65c0-1.463.674-2.813 2.922-2.813h2.304V1.393S13.613.999 11.646.999c-4.103 0-6.8 2.531-6.8 7.031v3.994H.238v5.175h4.608v12.6h5.62v-12.6h4.215z"/></symbol><symbol id="icon-inst" viewBox="0 0 30 32"><path  d="M15.735 8.391c-3.996 0-7.181 3.25-7.181 7.188 0 4 3.185 7.188 7.181 7.188a7.186 7.186 0 0 0 7.181-7.188c0-3.938-3.247-7.188-7.181-7.188zm0 11.875a4.679 4.679 0 0 1-4.683-4.688c0-2.563 2.061-4.625 4.683-4.625a4.612 4.612 0 0 1 4.621 4.625c0 2.625-2.06 4.688-4.621 4.688zm9.117-12.125c0-.938-.749-1.688-1.686-1.688s-1.686.75-1.686 1.688.749 1.688 1.686 1.688a1.68 1.68 0 0 0 1.686-1.688zm4.745 1.688c-.125-2.25-.624-4.25-2.248-5.875s-3.622-2.125-5.869-2.25c-2.31-.125-9.242-.125-11.552 0-2.248.125-4.184.625-5.87 2.25C2.434 5.579 1.935 7.579 1.81 9.829c-.125 2.313-.125 9.25 0 11.563.125 2.25.624 4.187 2.248 5.875 1.686 1.625 3.622 2.125 5.87 2.25 2.31.125 9.242.125 11.552 0 2.248-.125 4.246-.625 5.869-2.25 1.624-1.688 2.123-3.625 2.248-5.875.125-2.313.125-9.25 0-11.563zm-2.997 14c-.437 1.25-1.436 2.187-2.622 2.688-1.873.75-6.244.562-8.242.562-2.061 0-6.432.188-8.242-.562a4.735 4.735 0 0 1-2.685-2.688c-.749-1.813-.562-6.188-.562-8.25 0-2-.187-6.375.562-8.25a4.818 4.818 0 0 1 2.685-2.625c1.811-.75 6.182-.563 8.242-.563 1.998 0 6.369-.188 8.242.563 1.186.438 2.123 1.438 2.622 2.625.749 1.875.562 6.25.562 8.25 0 2.062.187 6.438-.562 8.25z"/></symbol><symbol id="icon-ln" viewBox="0 0 30 32"><path d="M8.069 29.111V10.423H2.262v18.688h5.807zM5.134 7.924c1.873 0 3.372-1.563 3.372-3.438 0-1.813-1.499-3.313-3.372-3.313-1.811 0-3.309 1.5-3.309 3.313 0 1.875 1.499 3.438 3.309 3.438zm24.603 21.187h.062v-10.25c0-5-1.124-8.875-6.994-8.875-2.81 0-4.683 1.563-5.495 3h-.062v-2.563h-5.557v18.688h5.807v-9.25c0-2.438.437-4.75 3.434-4.75s3.06 2.75 3.06 4.938v9.062h5.745z"/></symbol><symbol id="icon-nature" viewBox="0 0 101 32"><path d="m14.081 6.414.745-.159c.189 0 .348.04.457.119s.169.159.169.228-.02.179-.05.308-.308 1.46-.824 3.972a542.978 542.978 0 0 0-1.132 5.62c1.152-1.569 2.502-3.495 4.042-5.789s2.443-3.813 2.701-4.568c.079-.238.189-.417.318-.546s.248-.209.348-.228c.099-.02.258-.04.467-.04s.457.05.745.139c.288.089.437.238.437.457 0 .397-.596 1.559-1.778 3.466s-2.542 3.932-4.071 6.077-2.8 3.843-3.823 5.094c-.179.218-.407.338-.665.338s-.536-.05-.824-.139c-.288-.089-.437-.248-.437-.487 0-.745.655-4.339 1.966-10.764-1.122 1.45-2.483 3.476-4.081 6.067-1.668 2.681-2.612 4.349-2.83 4.985-.119.387-.258.616-.417.675a.83.83 0 0 1-.348.07l-.804.089a.777.777 0 0 1-.437-.129c-.129-.089-.199-.179-.199-.278 0-.268.377-1.082 1.122-2.433s1.629-2.82 2.631-4.409c1.003-1.589 2.046-3.128 3.138-4.627s1.936-2.512 2.532-3.019a.594.594 0 0 1 .417-.159l.487.069zM26.017 13.146c.516 0 .775.179.775.526 0 .189-.04.328-.129.417s-.278.377-.566.884a20.082 20.082 0 0 0-.953 1.917c-.348.775-.576 1.44-.675 1.986-.02.07-.03.159-.03.288 0 .377.099.556.308.556s.447-.099.725-.288a5.19 5.19 0 0 0 .745-.626c.218-.218.427-.447.636-.675s.328-.367.367-.397c.04-.03.099-.05.179-.05.129 0 .209.099.238.298s.04.397.04.616c0 .218-.02.358-.06.437-.199.387-.626.854-1.301 1.4-.665.546-1.281.814-1.827.814s-.953-.169-1.202-.497a1.818 1.818 0 0 1-.387-1.102c0-.407.07-.755.209-1.062a9.07 9.07 0 0 1-1.936 1.867c-.735.506-1.321.765-1.787.765s-.834-.139-1.132-.417c-.377-.348-.556-.824-.556-1.44s.139-1.231.417-1.857a6.768 6.768 0 0 1 1.082-1.698c.447-.516.943-.983 1.48-1.4 1.122-.884 2.165-1.321 3.118-1.321.367 0 .665.06.894.179s.377.278.437.457c.159-.248.298-.397.417-.467.089-.079.258-.109.477-.109zm-1.351 1.132c-1.162 0-2.363.646-3.605 1.936-.437.467-.844 1.013-1.221 1.658s-.556 1.082-.556 1.321.07.358.209.358c.189 0 .715-.377 1.589-1.122s1.45-1.301 1.728-1.658c.318-.397.933-1.231 1.857-2.492z"/><path d="m33.743 7.764.417.099c.06 0 .119.03.159.089.05.06.069.119.069.169s-.069.199-.218.437-.308.506-.506.804a5.013 5.013 0 0 0-.308.496c.526-.04.904-.06 1.122-.06s.367.02.457.05c.079.03.179.119.278.258.109.139.199.248.288.318s.129.179.129.318-.089.268-.258.357a1.368 1.368 0 0 1-.556.179c-1.579.159-2.443.238-2.602.248-.546.844-1.321 2.155-2.304 3.932s-1.509 2.9-1.569 3.346c-.03.209-.04.367-.04.497 0 .268.139.397.417.397s.586-.109.923-.318a7.54 7.54 0 0 0 .933-.695c.765-.675 1.172-1.023 1.221-1.023.179 0 .268.308.268.914 0 .328-.149.626-.457.894-.685.586-1.261 1.033-1.728 1.331s-.933.447-1.41.447c-.099 0-.199-.01-.288-.03-.546-.099-.943-.298-1.192-.596-.258-.298-.377-.695-.377-1.192s.149-1.112.447-1.827c.298-.715.665-1.48 1.112-2.284a79.635 79.635 0 0 1 2.195-3.704l-.387.05c-.785.089-1.241.129-1.37.129h-.089c-.199 0-.387-.04-.566-.119s-.278-.179-.278-.288c0-.119.05-.228.149-.338s.159-.199.179-.258c.05-.149.228-.318.536-.496s.536-.278.695-.288l.457-.03c.149-.01.308-.01.487-.02s.318-.01.417-.02l.914-.04c.566-.854.963-1.41 1.172-1.648.218-.248.338-.377.367-.397s.099-.04.209-.04l.487-.05z"/><path d="M39.849 17.684c.129 0 .209.099.238.298s.04.397.04.616c0 .218-.02.358-.06.437-.199.377-.626.844-1.291 1.39s-1.301.824-1.897.824c-.367 0-.705-.109-1.023-.328-.308-.218-.467-.606-.467-1.152s.149-1.092.437-1.619c-1.688 2.115-2.999 3.168-3.962 3.168-.377 0-.685-.139-.923-.407s-.348-.546-.348-.844c0-.288.04-.586.119-.894s.169-.586.258-.834.228-.546.407-.904.318-.616.397-.785c.079-.169.228-.407.427-.735s.447-.775.765-1.331c.318-.556.576-.973.785-1.241s.407-.407.606-.407.367.079.516.238c.149.159.228.298.228.397s-.228.556-.685 1.37c-1.341 2.433-2.016 3.843-2.016 4.25 0 .099.04.149.109.149.328 0 1.142-.705 2.433-2.115s2.046-2.314 2.254-2.711c.209-.397.397-.735.596-1.003.189-.268.338-.437.437-.496.288-.189.665-.288 1.132-.308.079 0 .129 0 .169.01s.089.069.139.169a.62.62 0 0 1 .079.258c-.06.189-.328.695-.814 1.519a59.923 59.923 0 0 0-.794 1.39c-.804 1.658-1.202 2.741-1.202 3.237 0 .288.109.427.328.427.397-.05.874-.367 1.43-.943.209-.209.407-.427.606-.645s.328-.348.367-.377c.05-.05.109-.07.179-.07z"/><path d="M42.799 15.331c1.599-1.817 2.969-2.731 4.091-2.731.278 0 .506.079.685.248s.268.377.268.646-.189.705-.566 1.331a21.21 21.21 0 0 1-1.043 1.569c-.169.218-.358.328-.576.328-.209 0-.377-.079-.496-.238s-.179-.338-.179-.546c0-.467.248-1.003.755-1.589l-.02-.02c-.228.02-.775.467-1.668 1.321a65.65 65.65 0 0 0-2.264 2.314 35.78 35.78 0 0 0-2.026 2.492c-.209.288-.387.437-.536.437s-.338-.05-.576-.139c-.238-.089-.387-.159-.437-.199s-.079-.109-.079-.209c0-.089.03-.209.079-.328.05-.129.159-.308.298-.536s.367-.606.665-1.122c.298-.516.755-1.301 1.38-2.343s.993-1.678 1.122-1.897c.258-.447.467-.775.636-.973.308-.387.824-.576 1.549-.576.159 0 .248.099.248.308 0 .318-.298.923-.884 1.797l-.427.655zM53.752 13.265c0 .447-.179.844-.546 1.182s-.775.506-1.241.506c-.149 0-.248-.04-.298-.109s-.07-.169-.07-.278c0-.109.01-.228.04-.338-.248.079-.516.209-.814.377s-.665.417-1.102.755c-.437.338-.655.576-.655.745 0 .05.079.079.238.079s.407-.06.735-.169c.328-.109.566-.169.695-.169s.218.01.258.02c.089.05.179.149.288.308.099.159.149.288.149.377s-.089.209-.268.358a1.977 1.977 0 0 1-.596.338 3.219 3.219 0 0 0-.447.179c-1.43.804-2.145 1.351-2.145 1.648 0 .526.447.794 1.351.794.576 0 1.162-.179 1.738-.546.497-.308.943-.626 1.341-.953.397-.318.645-.516.755-.596s.189-.109.238-.109c.179 0 .268.199.268.596s-.02.655-.07.775c-.05.129-.179.278-.407.467-1.45 1.182-2.83 1.778-4.121 1.778-.695 0-1.241-.099-1.658-.288-.765-.348-1.142-.874-1.142-1.589 0-.933.645-1.648 1.946-2.125-.258-.119-.427-.258-.496-.447-.079-.179-.109-.467-.109-.864s.189-.814.556-1.261a4.312 4.312 0 0 1 1.36-1.092c1.192-.645 2.264-.963 3.197-.963.228 0 .447.05.685.159s.348.258.348.457zM76.929 6.354h.129c.04 0 .07 0 .08.01s.019.01.04.02c.019 0 .03.01.049.03.03.03.079.06.139.089.079.06.119.129.119.209s-.079.248-.238.506a115 115 0 0 1-1.231 1.897 219.498 219.498 0 0 0-4.081 6.474c-2.076 3.456-3.128 5.193-3.148 5.213s-.03.04-.04.06c-.01.04-.03.06-.079.06l-.139-.03-.278.07-.159-.03-.169.03h-.06l-.566.079c-.338 0-.506-.119-.506-.348 0-.099.03-.218.089-.358.209-.497 1.271-2.294 3.178-5.412-1.251.03-2.493.05-3.714.05l-2.185-.01c-.358.576-.854 1.39-1.48 2.453-1.35 2.314-2.065 3.476-2.155 3.495s-.159.04-.218.04c-.06 0-.109-.03-.149-.099-.05-.06-.079-.099-.099-.099s-.05.01-.109.04c-.05.03-.129.04-.238.04l-.238-.01-.089-.06c-.01 0-.02.01-.03.03s-.04.03-.079.03c-.288 0-.437-.119-.437-.367 0-.159.06-.377.169-.645.119-.268.268-.556.457-.864s.665-1.053 1.45-2.214a98.961 98.961 0 0 0 1.162-1.758c-.129-.01-.278-.01-.447-.02-.348 0-.586-.01-.735-.04-.387-.069-.655-.387-.794-.953-.079-.278-.109-.457-.099-.546 0-.179.079-.278.238-.278l.268.069c.139.01.457.02.973.05s.884.04 1.112.04l.576-.02c.884-1.38 1.936-2.949 3.168-4.697-.894.735-1.887 1.102-2.979 1.102-.516 0-.963-.119-1.331-.367-.377-.248-.556-.566-.556-.943s.139-.675.427-.904c.288-.218.556-.328.814-.328s.387.04.387.119c0 .03-.04.06-.109.089-.069.04-.109.07-.109.099 0 .109.119.208.358.288s.506.129.804.129c.298 0 .655-.089 1.092-.258s.884-.397 1.35-.665a31.393 31.393 0 0 0 1.549-.943c.218-.109.417-.159.616-.159s.328.02.417.069c.089.04.149.089.189.129s.089.099.129.169c.05.069.089.129.139.159.04.04.07.079.07.129s-.03.119-.079.228c-.05.099-.308.516-.775 1.241s-1.073 1.648-1.807 2.77a187.851 187.851 0 0 0-1.609 2.483c1.817 0 3.773-.03 5.878-.099 2.562-4.042 3.913-6.157 4.051-6.355s.269-.328.387-.387.258-.089.427-.089l.864.07zM80.246 13.126c.208 0 .417.089.625.278.218.189.318.467.318.844s-.129.864-.397 1.47a9.847 9.847 0 0 1-1.093 1.837 15.723 15.723 0 0 1-1.519 1.748 8.098 8.098 0 0 1-1.787 1.341c-.646.348-1.222.526-1.747.526s-.943-.169-1.261-.497c-.318-.328-.477-.785-.477-1.37s.149-1.241.437-1.946c.288-.715.655-1.341 1.112-1.887s.943-1.033 1.479-1.47c1.103-.894 2.076-1.331 2.91-1.331.377 0 .655.089.844.278.07.06.099.119.099.159v.06c.109-.04.258-.04.457-.04zm-1.024 1.351h-.07c-.238 0-.358-.169-.358-.516-.496.159-1.012.447-1.559.854s-1.032.894-1.459 1.45c-.874 1.112-1.311 2.056-1.32 2.82 0 .377.138.566.417.566s.695-.189 1.241-.546c.546-.358 1.093-.884 1.639-1.569.536-.675.943-1.271 1.211-1.768s.407-.834.407-1.023c-.01-.179-.059-.268-.149-.268zM80.97 20.941l-.497-.02h-.179c-.07-.02-.139-.06-.218-.119s-.139-.109-.179-.129c-.04-.02-.06-.079-.06-.149s.03-.199.08-.367c1.32-2.91 2.601-5.243 3.843-6.981.139-.189.358-.338.655-.437s.595-.149.883-.149c.169 0 .258.129.258.397a.826.826 0 0 1-.079.298c-.049.129-.189.328-.407.616s-.477.616-.774.973c-.298.357-.467.576-.506.635.933-.963 1.767-1.678 2.522-2.155.755-.467 1.291-.705 1.629-.705s.596.099.775.288c.179.189.268.397.268.616s-.019.407-.049.546c-.03.149-.09.298-.169.457s-.149.298-.209.407a4.497 4.497 0 0 1-.288.437c-.138.179-.228.308-.278.377s-.159.199-.318.387a5.028 5.028 0 0 0-.258.318c.189-.189.456-.467.794-.844s.625-.685.864-.933c.238-.248.526-.536.883-.854s.685-.576.983-.765c.735-.457 1.48-.695 2.234-.695.258 0 .477.079.655.248s.269.357.269.586c0 .228-.278.775-.824 1.629s-1.103 1.718-1.649 2.582c-.546.864-.824 1.41-.824 1.638 0 .308.06.497.169.556.119.06.258.079.417.07s.397-.119.685-.318c.298-.199.556-.397.784-.616.378-.338.715-.665 1.043-.983a.33.33 0 0 1 .228-.089c.129 0 .209.099.239.298s.04.397.04.616c0 .218-.019.358-.06.437-.198.377-.635.844-1.301 1.4-.675.546-1.32.824-1.936.824-.079 0-.129 0-.159-.01-.696-.07-1.182-.258-1.45-.576s-.397-.695-.397-1.122.15-.963.447-1.579c.298-.616.616-1.182.973-1.678s.675-.953.973-1.36c.298-.407.447-.626.447-.655s-.03-.05-.079-.05c-.209 0-.675.338-1.41 1.023a39.428 39.428 0 0 0-3.217 3.356 79.738 79.738 0 0 0-1.688 2.165c-.099.139-.268.209-.486.209s-.447-.04-.685-.129c-.239-.089-.358-.199-.358-.328 0-.07.536-1.023 1.619-2.86s1.618-2.84 1.618-2.999c0-.169-.099-.248-.298-.248s-.616.298-1.241.894c-1.718 1.638-3.048 3.277-3.992 4.896-.06.099-.179.248-.358.447s-.338.278-.397.278z"/><path d="M100.662 13.265c0 .447-.179.844-.546 1.182s-.775.506-1.241.506c-.15 0-.248-.04-.298-.109s-.07-.169-.07-.278.01-.228.04-.338c-.248.079-.516.209-.814.377s-.665.417-1.102.755c-.438.338-.656.576-.656.745 0 .05.08.079.239.079s.407-.06.735-.169c.328-.109.566-.169.696-.169s.218.01.258.02c.089.05.179.149.288.308.099.159.149.288.149.377s-.09.209-.269.358a1.984 1.984 0 0 1-.595.338 3.164 3.164 0 0 0-.447.179c-1.43.804-2.145 1.351-2.145 1.648 0 .526.447.794 1.351.794.575 0 1.162-.179 1.738-.546.496-.308.943-.626 1.341-.953.397-.318.645-.516.755-.596s.189-.109.238-.109c.179 0 .269.199.269.596s-.02.655-.07.775c-.05.129-.179.278-.408.467-1.45 1.182-2.83 1.778-4.121 1.778-.695 0-1.241-.099-1.658-.288-.765-.348-1.142-.874-1.142-1.589 0-.933.646-1.648 1.946-2.125-.258-.119-.427-.258-.497-.447-.079-.179-.109-.467-.109-.864s.189-.814.556-1.261a4.316 4.316 0 0 1 1.361-1.092c1.192-.645 2.264-.963 3.197-.963.229 0 .447.05.685.159s.348.258.348.457zM0 23.692a51.688 51.688 0 0 0 7.984 2.582 60.52 60.52 0 0 0 8.173 1.45c1.37.189 2.751.209 4.111.338 1.38.01 2.751.119 4.121.04l2.055-.05c.685-.01 1.37-.099 2.055-.139.685-.06 1.37-.089 2.046-.179l2.036-.288c2.731-.298 5.382-.933 8.024-1.698 2.671-.735 5.193-1.708 7.865-2.721 2.731-1.003 5.69-1.658 8.689-1.341 1.48.189 2.969.665 4.181 1.539 1.221.864 2.095 2.095 2.651 3.386-.834-1.152-1.877-2.095-3.078-2.681s-2.522-.824-3.833-.785c-2.651.04-5.263.924-7.716 2.036a65.9 65.9 0 0 1-7.914 3.267c-2.741.884-5.571 1.589-8.441 1.946-5.71.755-11.559.765-17.199-.377-2.83-.516-5.591-1.321-8.262-2.343-2.651-1.063-5.243-2.304-7.547-3.982zM94.961 7.158a45.682 45.682 0 0 0-6.752-2.254 53.038 53.038 0 0 0-6.892-1.331c-1.152-.179-2.323-.218-3.475-.357-1.162-.03-2.314-.149-3.475-.099-.576.01-1.162.01-1.738 0-.576 0-1.162.06-1.738.079-.576.04-1.162.05-1.738.109l-1.728.209c-2.314.189-4.558.665-6.802 1.251-2.274.546-4.429 1.321-6.723 2.095-2.353.784-4.906 1.261-7.467.904-1.261-.208-2.532-.655-3.535-1.45-1.023-.784-1.718-1.857-2.145-2.979.705.983 1.579 1.787 2.582 2.284s2.105.705 3.207.695c2.224 0 4.429-.715 6.514-1.609 2.125-1.013 4.459-1.907 6.782-2.641 2.343-.705 4.786-1.241 7.229-1.499 4.876-.516 9.861-.397 14.637.735 2.393.506 4.727 1.281 6.961 2.234 2.244.973 4.409 2.105 6.296 3.624z"/></symbol><symbol id="icon-twitter" viewBox="0 0 38 32"><path d="M34.153 7.938c1.405-1.055 2.67-2.32 3.653-3.797a13.803 13.803 0 0 1-4.215 1.125c1.545-.914 2.669-2.32 3.232-4.078a15.55 15.55 0 0 1-4.637 1.828 7.372 7.372 0 0 0-5.409-2.32 7.379 7.379 0 0 0-7.376 7.383c0 .563.07 1.125.211 1.688A21.398 21.398 0 0 1 4.368 2.033c-.632 1.055-.983 2.32-.983 3.727a7.264 7.264 0 0 0 3.302 6.117c-1.194-.07-2.388-.352-3.372-.914v.07c0 3.586 2.529 6.539 5.901 7.242-.562.141-1.264.281-1.897.281-.492 0-.913-.07-1.405-.141.913 2.953 3.653 5.063 6.884 5.133-2.529 1.969-5.69 3.164-9.132 3.164-.632 0-1.194-.07-1.756-.141 3.231 2.109 7.095 3.305 11.31 3.305 13.558 0 20.934-11.18 20.934-20.953v-.984z"/></symbol><symbol id="icon-logo" viewBox="0 0 186 32"><path fill="#cda274" d="M0 32h12.112v-8.942c0-1.895 1.468-3.43 3.28-3.43s3.28 1.535 3.28 3.43V32h11.924V0C13.698 0-.001 14.326-.001 32z"/><path d="M41.324 29.176V28.8l.753-.301c.502-.176.828-.414.979-.715.176-.301.264-.703.264-1.205V6.927c0-.502-.075-.904-.226-1.205s-.489-.54-1.016-.715l-.753-.301V4.33H51v.376l-.753.301c-.502.176-.841.414-1.016.715-.151.301-.226.703-.226 1.205v19.652c0 .502.075.904.226 1.205.176.276.515.515 1.016.715L51 28.8v.376h-9.675zM52.948 29.176V28.8l.527-.151c.879-.251 1.318-.866 1.318-1.845V15.02c0-.552-.088-.954-.264-1.205-.176-.276-.514-.464-1.016-.565l-.565-.151v-.376l6.438-2.184.376.376.301 2.259c.879-.778 1.87-1.418 2.974-1.92s2.196-.753 3.275-.753c1.656 0 2.924.452 3.802 1.355.904.904 1.355 2.284 1.355 4.141v10.842c0 .979.477 1.594 1.431 1.845l.339.113v.376h-8.885v-.376l.489-.151c.879-.276 1.318-.891 1.318-1.845V14.792c0-1.606-.803-2.409-2.409-2.409-1.104 0-2.309.552-3.614 1.656v12.8c0 .979.439 1.594 1.318 1.845l.339.113v.376h-8.847zM82.059 29.741c-1.606 0-2.861-.402-3.765-1.205-.878-.803-1.318-2.083-1.318-3.84V11.821h-2.598v-.376l.904-.151c.778-.176 1.443-.427 1.995-.753a7.917 7.917 0 0 0 1.694-1.318l3.087-3.426h.376l-.113 5.271h4.216v.753h-4.254v13.553c0 .878.188 1.544.565 1.995.402.452.904.678 1.506.678.527 0 .991-.125 1.393-.376.402-.276.803-.64 1.205-1.092l.376.376c-.502.853-1.192 1.531-2.071 2.033s-1.945.753-3.2.753zM98.224 10.504c1.632 0 3.025.339 4.179 1.016a6.522 6.522 0 0 1 2.635 2.711c.628 1.129.941 2.422.941 3.878 0 .276-.012.565-.038.866a3.24 3.24 0 0 1-.151.753H94.571c.025 2.711.503 4.668 1.431 5.873.954 1.18 2.36 1.769 4.216 1.769 1.256 0 2.272-.201 3.049-.602s1.506-.991 2.184-1.769l.376.339c-.777 1.38-1.819 2.46-3.125 3.238-1.28.778-2.824 1.167-4.631 1.167-1.782 0-3.363-.376-4.743-1.129-1.38-.778-2.46-1.882-3.238-3.313s-1.167-3.137-1.167-5.12c0-2.058.452-3.802 1.355-5.233.904-1.456 2.058-2.56 3.464-3.313 1.43-.753 2.924-1.129 4.48-1.129zm-.113.752c-.728 0-1.355.226-1.882.678-.502.427-.904 1.205-1.205 2.334-.276 1.104-.426 2.673-.452 4.706h6.438c.251-2.736.151-4.706-.301-5.911s-1.318-1.807-2.598-1.807zM108.232 29.176V28.8l.565-.151c.502-.151.84-.376 1.016-.678.2-.301.301-.69.301-1.167V15.02c0-.552-.101-.954-.301-1.205-.176-.276-.515-.464-1.016-.565l-.565-.151v-.376l6.475-2.184.376.376.339 3.238v.301a7.816 7.816 0 0 1 1.355-1.92 7.964 7.964 0 0 1 1.882-1.468c.702-.376 1.393-.565 2.071-.565.953 0 1.681.264 2.184.791s.753 1.192.753 1.995c0 .853-.251 1.518-.753 1.995-.477.452-1.054.678-1.732.678-1.054 0-1.983-.527-2.786-1.581l-.075-.075c-.251-.351-.54-.54-.866-.565-.327-.05-.628.1-.904.452a3.031 3.031 0 0 0-.64.828 11.09 11.09 0 0 0-.452 1.054v10.504c0 1.004.439 1.631 1.318 1.882l1.205.339v.376h-9.751zM125.226 29.176V28.8l.527-.151c.878-.251 1.318-.866 1.318-1.845V15.02c0-.552-.088-.954-.264-1.205-.176-.276-.515-.464-1.016-.565l-.565-.151v-.376l6.438-2.184.376.376.301 2.259c.878-.778 1.87-1.418 2.974-1.92s2.196-.753 3.275-.753c1.656 0 2.924.452 3.802 1.355.904.904 1.355 2.284 1.355 4.141v10.842c0 .979.477 1.594 1.431 1.845l.339.113v.376h-8.885v-.376l.489-.151c.878-.276 1.318-.891 1.318-1.845V14.792c0-1.606-.803-2.409-2.409-2.409-1.104 0-2.309.552-3.614 1.656v12.8c0 .979.44 1.594 1.318 1.845l.339.113v.376h-8.847zM156.892 29.741c-1.908 0-3.564-.389-4.969-1.167-1.405-.803-2.497-1.933-3.275-3.388-.753-1.456-1.129-3.162-1.129-5.12s.402-3.652 1.205-5.082c.828-1.431 1.945-2.535 3.351-3.313 1.431-.778 3.037-1.167 4.819-1.167s3.376.389 4.781 1.167c1.405.753 2.51 1.845 3.313 3.275.828 1.431 1.242 3.137 1.242 5.12s-.389 3.702-1.167 5.158a8.165 8.165 0 0 1-3.238 3.351c-1.381.778-3.024 1.167-4.932 1.167zm0-.753c.878 0 1.581-.251 2.108-.753s.904-1.393 1.129-2.673c.251-1.28.376-3.087.376-5.421 0-2.359-.125-4.179-.376-5.459-.226-1.28-.602-2.171-1.129-2.673s-1.23-.753-2.108-.753c-.878 0-1.593.251-2.146.753-.527.502-.916 1.393-1.167 2.673-.226 1.28-.339 3.1-.339 5.459 0 2.334.113 4.141.339 5.421.251 1.28.64 2.171 1.167 2.673.552.502 1.268.753 2.146.753zM176.428 29.854c-1.381 0-2.786-.176-4.216-.527-1.431-.326-2.623-.765-3.576-1.318l.188-5.12h.376l1.167 2.447c.351.703.728 1.33 1.129 1.882.401.527.953.941 1.656 1.242.502.251.979.427 1.431.527.476.075 1.003.113 1.581.113 1.53 0 2.735-.414 3.614-1.242.904-.828 1.355-1.895 1.355-3.2 0-1.23-.301-2.184-.904-2.861-.602-.703-1.569-1.38-2.899-2.033l-1.544-.678c-2.159-.954-3.852-2.045-5.082-3.275-1.205-1.255-1.807-2.911-1.807-4.969 0-1.481.376-2.761 1.129-3.84.777-1.079 1.845-1.907 3.2-2.485 1.38-.577 2.986-.866 4.819-.866 1.33 0 2.585.176 3.765.527 1.205.351 2.246.828 3.125 1.431l-.226 4.518h-.376l-1.544-2.824c-.427-.878-.854-1.493-1.28-1.845a3.65 3.65 0 0 0-1.468-.791 4.507 4.507 0 0 0-.904-.188 6.103 6.103 0 0 0-1.054-.075c-1.28 0-2.36.376-3.238 1.129-.879.728-1.318 1.719-1.318 2.974 0 1.28.339 2.309 1.016 3.087.678.753 1.669 1.431 2.974 2.033l1.732.753c2.409 1.054 4.141 2.184 5.195 3.388 1.054 1.18 1.581 2.711 1.581 4.593 0 2.209-.841 4.016-2.522 5.421-1.656 1.38-4.016 2.071-7.078 2.071z"/></symbol></defs></svg>