<svg width="19" height="16" fill="none" xmlns="http://www.w3.org/2000/svg"><g clip-path="url(#a)"><path d="M17.076 3.969a7.814 7.814 0 0 0 1.827-1.899 6.906 6.906 0 0 1-2.108.563 3.607 3.607 0 0 0 1.616-2.04 7.787 7.787 0 0 1-2.318.915 3.687 3.687 0 0 0-2.705-1.16A3.69 3.69 0 0 0 9.7 4.039c0 .281.035.563.106.844a10.697 10.697 0 0 1-7.622-3.867 3.593 3.593 0 0 0-.492 1.863c0 1.266.632 2.39 1.65 3.058-.596-.035-1.193-.175-1.685-.457v.036a3.695 3.695 0 0 0 2.95 3.62c-.28.071-.632.141-.948.141-.246 0-.457-.035-.703-.07A3.67 3.67 0 0 0 6.4 11.773a7.411 7.411 0 0 1-4.567 1.582c-.316 0-.597-.035-.878-.07 1.616 1.055 3.548 1.652 5.655 1.652 6.78 0 10.467-5.59 10.467-10.476v-.492Z" fill="#292F36"/></g><defs><clipPath id="a"><path fill="#fff" transform="translate(.954 .203)" d="M0 0h17.984v15H0z"/></clipPath></defs></svg>